<?xml version="1.0" encoding="UTF-8"?>
<svg id="Layer_2" data-name="Layer 2" xmlns="http://www.w3.org/2000/svg" viewBox="0 0 521.22 34.99">
  <g id="specs">
    <g>
      <path d="M165.46,22.75c0,2.88-.11,3.46-.8,4.5-.84,1.22-2.43,1.98-4.22,1.98s-3.38-.76-4.22-1.98c-.68-1.04-.8-1.66-.8-4.5v-11.81c0-2.84.11-3.46.8-4.5.84-1.19,2.43-1.94,4.22-1.94s3.38.76,4.22,1.94c.68,1.04.8,1.66.8,4.5v11.81ZM161.93,9.58c0-1.37-.42-1.94-1.48-1.94s-1.48.58-1.48,1.94v14.58c0,1.37.42,1.94,1.48,1.94s1.48-.58,1.48-1.94v-14.58Z" style="fill: #fff;"/>
      <path d="M171.77,4.86c3.08,0,4.22.36,5.24,1.58,1.06,1.26,1.37,2.52,1.37,5.58s-.3,4.43-1.33,5.54c-.91,1.01-2.47,1.55-4.6,1.55h-.49v9.75h-3.53V4.86h3.34ZM172.45,16.02c2.09,0,2.51-.65,2.51-4.03s-.42-4-2.51-4h-.49v8.03h.49Z" style="fill: #fff;"/>
      <path d="M189.48,4.86v3.13h-5.01v6.73h3.5v3.13h-3.5v7.88h5.32v3.13h-8.85V4.86h8.55Z" style="fill: #fff;"/>
      <path d="M195.56,4.86c2.85,0,4.14.43,5.17,1.69.91,1.12,1.33,2.74,1.33,5,0,2.99-.34,4.07-1.79,5.83l2.47,11.48h-3.8l-2.05-10.33c-.61.11-.72.11-1.25.14v10.19h-3.53V4.86h3.46ZM196.13,15.3c1.14,0,1.79-.25,2.13-.86.27-.47.34-1.04.34-3.24,0-2.59-.49-3.2-2.47-3.2h-.49v7.31h.49Z" style="fill: #fff;"/>
      <path d="M208.25,28.87h-3.42l3.46-24.01h4.56l3.31,24.01h-3.46l-.65-5.4h-3.19l-.61,5.4ZM210.45,9.21l-1.22,11.12h2.43l-1.22-11.12Z" style="fill: #fff;"/>
      <path d="M228.69,20.34c.04,1.3.08,1.87.08,2.52,0,4.28-1.67,6.37-5.13,6.37s-4.98-1.94-4.98-5.76v-13.21c0-3.82,1.67-5.76,4.98-5.76s5.13,2.09,5.13,6.26c0,.58,0,.97-.08,1.91h-3.53c.08-.76.08-1.08.08-1.66,0-2.66-.34-3.38-1.6-3.38-1.14,0-1.44.54-1.44,2.63v13.21c0,2.09.3,2.63,1.44,2.63,1.25,0,1.6-.72,1.6-3.28,0-.72-.04-1.37-.08-2.48h3.53ZM225.19,32.97l-.84,2.02h-1.79l.65-2.02h-.99v-2.45h2.96v2.45Z" style="fill: #fff;"/>
      <path d="M234.54,28.87h-3.42l3.46-24.01h4.56l3.31,24.01h-3.46l-.65-5.4h-3.19l-.61,5.4ZM233.67.54c.61-.4,1.1-.54,1.79-.54.49,0,.84.07,1.37.29.91.36,1.14.43,1.56.43.49,0,.76-.11,1.52-.61v2.48c-.76.5-1.03.61-1.52.61-.42,0-.65-.07-1.56-.43-.53-.22-.87-.29-1.37-.29-.68,0-1.18.14-1.79.54V.54ZM236.75,9.21l-1.22,11.12h2.43l-1.22-11.12Z" style="fill: #fff;"/>
      <path d="M254.98,22.75c0,2.88-.11,3.46-.8,4.5-.84,1.22-2.43,1.98-4.22,1.98s-3.38-.76-4.22-1.98c-.68-1.04-.8-1.66-.8-4.5v-11.81c0-2.84.11-3.46.8-4.5.84-1.19,2.43-1.94,4.22-1.94s3.38.76,4.22,1.94c.68,1.04.8,1.66.8,4.5v11.81ZM251.45,9.58c0-1.37-.42-1.94-1.48-1.94s-1.48.58-1.48,1.94v14.58c0,1.37.42,1.94,1.48,1.94s1.48-.58,1.48-1.94v-14.58Z" style="fill: #fff;"/>
      <path d="M267.45,28.87h-3.42l3.46-24.01h4.56l3.31,24.01h-3.46l-.65-5.4h-3.19l-.61,5.4ZM269.65,9.21l-1.22,11.12h2.43l-1.22-11.12Z" style="fill: #fff;"/>
      <path d="M287.09,4.86h4.25v24.01h-3.04V11.91l-2.96,16.95h-1.52l-2.96-16.95v16.95h-2.96V4.86h4.18l2.51,11.95,2.51-11.95Z" style="fill: #fff;"/>
      <path d="M302.94,4.86v3.13h-5.01v6.73h3.5v3.13h-3.5v7.88h5.32v3.13h-8.85V4.86h8.55ZM298.87.25h3.69l-2.74,2.7h-2.66l1.71-2.7Z" style="fill: #fff;"/>
      <path d="M309.02,4.86c2.85,0,4.14.43,5.17,1.69.91,1.12,1.33,2.74,1.33,5,0,2.99-.34,4.07-1.79,5.83l2.47,11.48h-3.8l-2.05-10.33c-.61.11-.72.11-1.25.14v10.19h-3.53V4.86h3.46ZM309.59,15.3c1.14,0,1.79-.25,2.13-.86.27-.47.34-1.04.34-3.24,0-2.59-.49-3.2-2.47-3.2h-.49v7.31h.49Z" style="fill: #fff;"/>
      <path d="M322.32,28.87h-3.53V4.86h3.53v24.01Z" style="fill: #fff;"/>
      <path d="M335.35,20.34c.04,1.3.08,1.87.08,2.52,0,4.28-1.67,6.37-5.13,6.37s-4.98-1.94-4.98-5.76v-13.21c0-3.82,1.67-5.76,4.98-5.76s5.13,2.09,5.13,6.26c0,.58,0,.97-.08,1.91h-3.53c.08-.76.08-1.08.08-1.66,0-2.66-.34-3.38-1.6-3.38-1.14,0-1.44.54-1.44,2.63v13.21c0,2.09.3,2.63,1.44,2.63,1.25,0,1.6-.72,1.6-3.28,0-.72-.04-1.37-.08-2.48h3.53Z" style="fill: #fff;"/>
      <path d="M341.2,28.87h-3.42l3.46-24.01h4.56l3.31,24.01h-3.46l-.65-5.4h-3.19l-.61,5.4ZM343.41,9.21l-1.22,11.12h2.43l-1.22-11.12Z" style="fill: #fff;"/>
    </g>
    <g id="CNN">
      <rect id="rule_line" data-name="rule line" x="146.66" y="2.86" width=".99" height="28" style="fill: #c00;"/>
      <g id="CNN-2" data-name="CNN">
        <g id="CNN-3" data-name="CNN">
          <path d="M135.12,4.87v19.54c0,.78-.49,1.43-1.21,1.63-.13.04-.28.06-.43.06-.55,0-1.18-.27-1.64-1.05-.02-.04-1.84-3.17-4.61-7.94-2.23-3.85-4.55-7.84-4.59-7.9-.25-.43-.61-.64-.95-.54-.29.08-.48.34-.48.67v15.08c0,.78-.49,1.43-1.21,1.63-.62.17-1.49,0-2.07-1-.03-.04-1.96-3.38-4.2-7.24-2.32-4-4.95-8.53-4.99-8.6-.26-.43-.61-.64-.96-.54-.22.06-.48.27-.48.67v14.75c0,.97-.85,1.82-1.83,1.82h-7.49c-4.98,0-9.04-4.05-9.04-9.03s4.05-9.04,9.04-9.04h3.89v-2.96h-3.89c-6.63,0-12,5.37-12,12s5.37,12,12,12h7.56c2.87,0,4.72-1.68,4.72-4.79v-6.84s4.82,8.31,5.04,8.69c3.06,5.2,8.85,3.05,8.85-1.43v-7.26s4.82,8.31,5.04,8.69c3.06,5.2,8.85,3.05,8.85-1.43V4.87h-2.96Z" style="fill: #c00;"/>
          <path d="M89.96,16.86c0,4.44,3.61,8.05,8.05,8.05h7.49c.47,0,.84-.45.84-.84v-14.75c0-.78.49-1.43,1.21-1.63.62-.17,1.49,0,2.07,1,.03.05,2.55,4.4,4.99,8.6,2.14,3.69,4.16,7.18,4.2,7.24.26.43.61.64.96.54.22-.06.48-.27.48-.67v-15.08c0-.78.48-1.43,1.2-1.63.61-.17,1.48,0,2.06,1,.03.05,2.24,3.87,4.59,7.91,2.24,3.87,4.56,7.87,4.6,7.93.26.43.61.64.96.54.22-.06.48-.27.48-.67V4.87s-2.97,0-2.97,0v11.63s-4.82-8.31-5.05-8.69c-3.06-5.2-8.85-3.05-8.85,1.43v7.26s-4.82-8.31-5.04-8.69c-3.06-5.2-8.85-3.05-8.85,1.43v11.9c0,.43-.32.81-.8.81h-4.54c-2.81,0-5.08-2.28-5.08-5.08s2.28-5.08,5.08-5.08h3.86v-2.96h-3.89c-4.44,0-8.05,3.61-8.05,8.05Z" style="fill: #c00;"/>
        </g>
      </g>
    </g>
    <g>
      <path d="M357.94,27.93c0-1.44.35-2.83,1.06-4.16.71-1.34,1.98-2.76,3.81-4.26l4.28-3.51c.72-.58,1.28-1.08,1.69-1.48.41-.4.72-.83.94-1.26.22-.44.33-.93.33-1.47s-.12-.99-.37-1.43c-.24-.44-.61-.78-1.1-1.03-.49-.25-1.08-.37-1.77-.37-1.21,0-2.09.39-2.66,1.18-.57.79-.85,1.94-.85,3.47h-5.63c0-1.91.37-3.54,1.11-4.9.74-1.36,1.8-2.39,3.18-3.08,1.38-.7,3.02-1.05,4.92-1.05,1.74,0,3.27.32,4.61.94,1.33.63,2.36,1.51,3.09,2.63.73,1.12,1.1,2.42,1.1,3.88,0,1.21-.32,2.37-.97,3.47-.65,1.1-1.45,2.02-2.4,2.76l-4.38,3.4c-.95.74-1.64,1.34-2.07,1.8-.43.46-.68.89-.75,1.3h10.75v4.52h-17.91v-1.35Z" style="fill: #fff;"/>
      <path d="M380.69,26.78c-1.6-2-2.4-5.23-2.4-9.67,0-3.01.37-5.44,1.1-7.3.73-1.85,1.79-3.19,3.18-4.01,1.39-.82,3.12-1.23,5.18-1.23s3.76.41,5.16,1.23c1.4.82,2.47,2.16,3.22,4.01.74,1.85,1.11,4.29,1.11,7.3,0,4.45-.81,7.67-2.42,9.67-1.61,2-3.97,3-7.08,3s-5.46-1-7.06-3ZM390.06,24.52c.57-.52.99-1.37,1.27-2.56.28-1.19.42-2.81.42-4.85s-.14-3.59-.42-4.77c-.28-1.18-.71-2.02-1.29-2.53-.58-.51-1.35-.76-2.3-.76s-1.71.25-2.28.76-.99,1.34-1.27,2.51c-.28,1.17-.42,2.76-.42,4.79s.14,3.64.42,4.84c.28,1.2.71,2.06,1.29,2.58.58.52,1.34.78,2.3.78s1.71-.26,2.28-.78Z" style="fill: #fff;"/>
      <path d="M400.09,27.93c0-1.44.35-2.83,1.06-4.16.71-1.34,1.98-2.76,3.81-4.26l4.28-3.51c.72-.58,1.28-1.08,1.69-1.48.41-.4.72-.83.94-1.26.22-.44.33-.93.33-1.47s-.12-.99-.37-1.43c-.24-.44-.61-.78-1.1-1.03-.49-.25-1.08-.37-1.77-.37-1.21,0-2.09.39-2.66,1.18-.57.79-.85,1.94-.85,3.47h-5.63c0-1.91.37-3.54,1.11-4.9.74-1.36,1.8-2.39,3.18-3.08,1.38-.7,3.02-1.05,4.92-1.05,1.74,0,3.27.32,4.61.94,1.33.63,2.36,1.51,3.09,2.63.73,1.12,1.1,2.42,1.1,3.88,0,1.21-.32,2.37-.97,3.47-.65,1.1-1.45,2.02-2.4,2.76l-4.38,3.4c-.95.74-1.64,1.34-2.07,1.8-.43.46-.68.89-.75,1.3h10.75v4.52h-17.91v-1.35Z" style="fill: #fff;"/>
      <path d="M440.3,24.42h-3.2v4.85h-5.81v-4.85h-11.23v-4.05l10.64-15.14h6.4v14.73h3.2v4.45ZM431.46,19.97v-8.06l-5.56,8.06h5.56Z" style="fill: #fff;"/>
    </g>
    <polygon id="star" points="511.44 7.68 513.71 14.85 521.22 14.79 515.11 19.16 517.48 26.29 511.44 21.82 505.4 26.29 507.77 19.16 501.66 14.79 509.17 14.85 511.44 7.68" style="fill: #bbbdbf;"/>
    <polygon id="star-2" data-name="star" points="472.32 7.68 474.59 14.85 482.1 14.79 475.99 19.16 478.37 26.29 472.32 21.82 466.28 26.29 468.66 19.16 462.54 14.79 470.06 14.85 472.32 7.68" style="fill: #bbbdbf;"/>
    <polygon id="star-3" data-name="star" points="48.9 7.68 51.16 14.85 58.67 14.79 52.56 19.16 54.94 26.29 48.9 21.82 42.85 26.29 45.23 19.16 39.12 14.79 46.63 14.85 48.9 7.68" style="fill: #bbbdbf;"/>
    <polygon id="star-4" data-name="star" points="9.78 7.68 12.05 14.85 19.56 14.79 13.45 19.16 15.82 26.29 9.78 21.82 3.74 26.29 6.11 19.16 0 14.79 7.51 14.85 9.78 7.68" style="fill: #bbbdbf;"/>
  </g>
</svg>