<?xml version="1.0" encoding="UTF-8"?>
<svg id="Layer_2" xmlns="http://www.w3.org/2000/svg" version="1.1" viewBox="0 0 521.2 35">
  <!-- Generator: Adobe Illustrator 29.0.0, SVG Export Plug-In . SVG Version: 2.1.0 Build 186)  -->
  <defs>
    <style>
      .st0 {
        fill: #bbbdbf;
      }

      .st1 {
        fill: #fff;
      }
    </style>
  </defs>
  <g id="ONE_LINE">
    <g>
      <path class="st1" d="M165.5,22.8c0,2.9-.1,3.5-.8,4.5-.8,1.2-2.4,2-4.2,2s-3.4-.8-4.2-2c-.7-1-.8-1.7-.8-4.5v-11.8c0-2.8.1-3.5.8-4.5.8-1.2,2.4-1.9,4.2-1.9s3.4.8,4.2,1.9c.7,1,.8,1.7.8,4.5v11.8ZM161.9,9.6c0-1.4-.4-1.9-1.5-1.9s-1.5.6-1.5,1.9v14.6c0,1.4.4,1.9,1.5,1.9s1.5-.6,1.5-1.9v-14.6Z"/>
      <path class="st1" d="M171.8,4.9c3.1,0,4.2.4,5.2,1.6,1.1,1.3,1.4,2.5,1.4,5.6s-.3,4.4-1.3,5.5c-.9,1-2.5,1.5-4.6,1.5h-.5v9.8h-3.5V4.9h3.3ZM172.4,16c2.1,0,2.5-.6,2.5-4s-.4-4-2.5-4h-.5v8h.5Z"/>
      <path class="st1" d="M189.5,4.9v3.1h-5v6.7h3.5v3.1h-3.5v7.9h5.3v3.1h-8.9V4.9h8.6,0Z"/>
      <path class="st1" d="M195.6,4.9c2.9,0,4.1.4,5.2,1.7.9,1.1,1.3,2.7,1.3,5s-.3,4.1-1.8,5.8l2.5,11.5h-3.8l-2.1-10.3c-.6.1-.7.1-1.2.1v10.2h-3.5V4.9h3.5,0ZM196.1,15.3c1.1,0,1.8-.2,2.1-.9.3-.5.3-1,.3-3.2s-.5-3.2-2.5-3.2h-.5v7.3h.5Z"/>
      <path class="st1" d="M208.2,28.9h-3.4l3.5-24h4.6l3.3,24h-3.5l-.6-5.4h-3.2l-.6,5.4ZM210.4,9.2l-1.2,11.1h2.4l-1.2-11.1h0Z"/>
      <path class="st1" d="M228.7,20.3c0,1.3,0,1.9,0,2.5,0,4.3-1.7,6.4-5.1,6.4s-5-1.9-5-5.8v-13.2c0-3.8,1.7-5.8,5-5.8s5.1,2.1,5.1,6.3,0,1,0,1.9h-3.5c0-.8,0-1.1,0-1.7,0-2.7-.3-3.4-1.6-3.4s-1.4.5-1.4,2.6v13.2c0,2.1.3,2.6,1.4,2.6s1.6-.7,1.6-3.3,0-1.4,0-2.5c0,0,3.5,0,3.5,0ZM225.2,33l-.8,2h-1.8l.6-2h-1v-2.5h3v2.5h0Z"/>
      <path class="st1" d="M234.5,28.9h-3.4l3.5-24h4.6l3.3,24h-3.5l-.6-5.4h-3.2l-.6,5.4ZM233.7.5c.6-.4,1.1-.5,1.8-.5s.8,0,1.4.3c.9.4,1.1.4,1.6.4s.8-.1,1.5-.6v2.5c-.8.5-1,.6-1.5.6s-.6,0-1.6-.4c-.5-.2-.9-.3-1.4-.3s-1.2.1-1.8.5V.5ZM236.8,9.2l-1.2,11.1h2.4l-1.2-11.1h0Z"/>
      <path class="st1" d="M255,22.8c0,2.9-.1,3.5-.8,4.5-.8,1.2-2.4,2-4.2,2s-3.4-.8-4.2-2c-.7-1-.8-1.7-.8-4.5v-11.8c0-2.8.1-3.5.8-4.5.8-1.2,2.4-1.9,4.2-1.9s3.4.8,4.2,1.9c.7,1,.8,1.7.8,4.5v11.8ZM251.4,9.6c0-1.4-.4-1.9-1.5-1.9s-1.5.6-1.5,1.9v14.6c0,1.4.4,1.9,1.5,1.9s1.5-.6,1.5-1.9v-14.6Z"/>
      <path class="st1" d="M267.5,28.9h-3.4l3.5-24h4.6l3.3,24h-3.5l-.6-5.4h-3.2l-.6,5.4ZM269.6,9.2l-1.2,11.1h2.4l-1.2-11.1h0Z"/>
      <path class="st1" d="M287.1,4.9h4.2v24h-3V11.9l-3,17h-1.5l-3-17v17h-3V4.9h4.2l2.5,11.9,2.5-11.9h0Z"/>
      <path class="st1" d="M302.9,4.9v3.1h-5v6.7h3.5v3.1h-3.5v7.9h5.3v3.1h-8.9V4.9h8.5,0ZM298.9.2h3.7l-2.7,2.7h-2.7l1.7-2.7Z"/>
      <path class="st1" d="M309,4.9c2.9,0,4.1.4,5.2,1.7.9,1.1,1.3,2.7,1.3,5s-.3,4.1-1.8,5.8l2.5,11.5h-3.8l-2-10.3c-.6.1-.7.1-1.2.1v10.2h-3.5V4.9h3.5,0ZM309.6,15.3c1.1,0,1.8-.2,2.1-.9.3-.5.3-1,.3-3.2s-.5-3.2-2.5-3.2h-.5v7.3h.5Z"/>
      <path class="st1" d="M322.3,28.9h-3.5V4.9h3.5v24Z"/>
      <path class="st1" d="M335.4,20.3c0,1.3,0,1.9,0,2.5,0,4.3-1.7,6.4-5.1,6.4s-5-1.9-5-5.8v-13.2c0-3.8,1.7-5.8,5-5.8s5.1,2.1,5.1,6.3,0,1,0,1.9h-3.5c0-.8,0-1.1,0-1.7,0-2.7-.3-3.4-1.6-3.4s-1.4.5-1.4,2.6v13.2c0,2.1.3,2.6,1.4,2.6s1.6-.7,1.6-3.3,0-1.4,0-2.5c0,0,3.5,0,3.5,0Z"/>
      <path class="st1" d="M341.2,28.9h-3.4l3.5-24h4.6l3.3,24h-3.5l-.6-5.4h-3.2l-.6,5.4ZM343.4,9.2l-1.2,11.1h2.4l-1.2-11.1h0Z"/>
    </g>
    <g id="CNN">
      <rect id="rule_line" class="st1" x="146.7" y="2.9" width="1" height="28"/>
      <g id="CNN-2">
        <g id="CNN-3">
          <path class="st1" d="M135.1,4.9v19.5c0,.8-.5,1.4-1.2,1.6-.1,0-.3,0-.4,0-.6,0-1.2-.3-1.6-1,0,0-1.8-3.2-4.6-7.9-2.2-3.9-4.6-7.8-4.6-7.9-.2-.4-.6-.6-.9-.5-.3,0-.5.3-.5.7v15.1c0,.8-.5,1.4-1.2,1.6-.6.2-1.5,0-2.1-1,0,0-2-3.4-4.2-7.2-2.3-4-4.9-8.5-5-8.6-.3-.4-.6-.6-1-.5-.2,0-.5.3-.5.7v14.7c0,1-.8,1.8-1.8,1.8h-7.5c-5,0-9-4-9-9s4.1-9,9-9h3.9v-3h-3.9c-6.6,0-12,5.4-12,12s5.4,12,12,12h7.6c2.9,0,4.7-1.7,4.7-4.8v-6.8s4.8,8.3,5,8.7c3.1,5.2,8.8,3,8.8-1.4v-7.3s4.8,8.3,5,8.7c3.1,5.2,8.9,3,8.9-1.4V4.9h-3,0Z"/>
          <path class="st1" d="M90,16.9c0,4.4,3.6,8,8.1,8h7.5c.5,0,.8-.5.8-.8v-14.8c0-.8.5-1.4,1.2-1.6.6-.2,1.5,0,2.1,1,0,0,2.6,4.4,5,8.6,2.1,3.7,4.2,7.2,4.2,7.2.3.4.6.6,1,.5.2,0,.5-.3.5-.7v-15.1c0-.8.5-1.4,1.2-1.6.6-.2,1.5,0,2.1,1,0,0,2.2,3.9,4.6,7.9,2.2,3.9,4.6,7.9,4.6,7.9.3.4.6.6,1,.5.2,0,.5-.3.5-.7V4.9h-3v11.6s-4.8-8.3-5.1-8.7c-3.1-5.2-8.8-3.1-8.8,1.4v7.3s-4.8-8.3-5-8.7c-3.1-5.2-8.8-3.1-8.8,1.4v11.9c0,.4-.3.8-.8.8h-4.5c-2.8,0-5.1-2.3-5.1-5.1s2.3-5.1,5.1-5.1h3.9v-3h-3.9c-4.4,0-8.1,3.6-8.1,8.1h0Z"/>
        </g>
      </g>
    </g>
    <g>
      <path class="st1" d="M357.9,27.9c0-1.4.4-2.8,1.1-4.2.7-1.3,2-2.8,3.8-4.3l4.3-3.5c.7-.6,1.3-1.1,1.7-1.5s.7-.8.9-1.3c.2-.4.3-.9.3-1.5s-.1-1-.4-1.4c-.2-.4-.6-.8-1.1-1-.5-.2-1.1-.4-1.8-.4-1.2,0-2.1.4-2.7,1.2s-.9,1.9-.9,3.5h-5.6c0-1.9.4-3.5,1.1-4.9.7-1.4,1.8-2.4,3.2-3.1,1.4-.7,3-1.1,4.9-1.1s3.3.3,4.6.9c1.3.6,2.4,1.5,3.1,2.6.7,1.1,1.1,2.4,1.1,3.9s-.3,2.4-1,3.5-1.5,2-2.4,2.8l-4.4,3.4c-1,.7-1.6,1.3-2.1,1.8s-.7.9-.8,1.3h10.8v4.5h-17.9v-1.4h0Z"/>
      <path class="st1" d="M380.7,26.8c-1.6-2-2.4-5.2-2.4-9.7s.4-5.4,1.1-7.3c.7-1.8,1.8-3.2,3.2-4,1.4-.8,3.1-1.2,5.2-1.2s3.8.4,5.2,1.2,2.5,2.2,3.2,4c.7,1.9,1.1,4.3,1.1,7.3,0,4.5-.8,7.7-2.4,9.7-1.6,2-4,3-7.1,3s-5.5-1-7.1-3h0ZM390.1,24.5c.6-.5,1-1.4,1.3-2.6.3-1.2.4-2.8.4-4.9s-.1-3.6-.4-4.8-.7-2-1.3-2.5c-.6-.5-1.4-.8-2.3-.8s-1.7.2-2.3.8-1,1.3-1.3,2.5-.4,2.8-.4,4.8.1,3.6.4,4.8.7,2.1,1.3,2.6c.6.5,1.3.8,2.3.8s1.7-.3,2.3-.8h0Z"/>
      <path class="st1" d="M400.1,27.9c0-1.4.4-2.8,1.1-4.2.7-1.3,2-2.8,3.8-4.3l4.3-3.5c.7-.6,1.3-1.1,1.7-1.5s.7-.8.9-1.3c.2-.4.3-.9.3-1.5s-.1-1-.4-1.4c-.2-.4-.6-.8-1.1-1-.5-.2-1.1-.4-1.8-.4-1.2,0-2.1.4-2.7,1.2s-.9,1.9-.9,3.5h-5.6c0-1.9.4-3.5,1.1-4.9.7-1.4,1.8-2.4,3.2-3.1,1.4-.7,3-1.1,4.9-1.1s3.3.3,4.6.9c1.3.6,2.4,1.5,3.1,2.6.7,1.1,1.1,2.4,1.1,3.9s-.3,2.4-1,3.5-1.5,2-2.4,2.8l-4.4,3.4c-1,.7-1.6,1.3-2.1,1.8s-.7.9-.8,1.3h10.8v4.5h-17.9v-1.4h0Z"/>
      <path class="st1" d="M440.3,24.4h-3.2v4.9h-5.8v-4.9h-11.2v-4.1l10.6-15.1h6.4v14.7h3.2v4.5h0ZM431.5,20v-8.1l-5.6,8.1h5.6Z"/>
    </g>
    <polygon id="star" class="st0" points="511.4 7.7 513.7 14.9 521.2 14.8 515.1 19.2 517.5 26.3 511.4 21.8 505.4 26.3 507.8 19.2 501.7 14.8 509.2 14.9 511.4 7.7"/>
    <polygon id="star-2" class="st0" points="472.3 7.7 474.6 14.9 482.1 14.8 476 19.2 478.4 26.3 472.3 21.8 466.3 26.3 468.7 19.2 462.5 14.8 470.1 14.9 472.3 7.7"/>
    <polygon id="star-3" class="st0" points="48.9 7.7 51.2 14.9 58.7 14.8 52.6 19.2 54.9 26.3 48.9 21.8 42.8 26.3 45.2 19.2 39.1 14.8 46.6 14.9 48.9 7.7"/>
    <polygon id="star-4" class="st0" points="9.8 7.7 12.1 14.9 19.6 14.8 13.4 19.2 15.8 26.3 9.8 21.8 3.7 26.3 6.1 19.2 0 14.8 7.5 14.9 9.8 7.7"/>
  </g>
</svg>