<?xml version="1.0" encoding="UTF-8"?>
<svg id="Layer_2" data-name="Layer 2" xmlns="http://www.w3.org/2000/svg" viewBox="0 0 375.91 197.55">
  <g id="specs">
    <g id="AMC2023">
      <g>
        <g>
          <path d="M229.71,122.42h-6.94l7.01-50.35h9.25l6.71,50.35h-7.01l-1.31-11.32h-6.47l-1.23,11.32ZM234.18,81.21l-2.47,23.32h4.93l-2.47-23.32Z" style="fill: #fff;"/>
          <path d="M266.32,72.08h8.63v50.35h-6.17v-35.55l-6.01,35.55h-3.08l-6.01-35.55v35.55h-6.01v-50.35h8.48l5.09,25.06,5.09-25.06Z" style="fill: #fff;"/>
          <path d="M295.22,72.08v6.57h-10.17v14.12h7.09v6.57h-7.09v16.53h10.79v6.57h-17.96v-50.35h17.34ZM285.97,67.41h7.48l-4.55,3.66h-5.4l2.47-3.66Z" style="fill: #fff;"/>
          <path d="M304.31,72.08c5.78,0,8.4.91,10.48,3.55,1.85,2.34,2.7,5.74,2.7,10.49,0,6.27-.69,8.53-3.62,12.23l5.01,24.08h-7.71l-4.16-21.66c-1.23.23-1.46.23-2.54.3v21.36h-7.17v-50.35h7.01ZM305.47,93.97c2.31,0,3.62-.53,4.32-1.81.54-.98.69-2.19.69-6.79,0-5.43-1-6.72-5.01-6.72h-1v15.32h1Z" style="fill: #fff;"/>
          <path d="M328.05,122.42h-7.17v-50.35h7.17v50.35Z" style="fill: #fff;"/>
          <path d="M351.25,104.53c.08,2.72.15,3.93.15,5.28,0,8.98-3.39,13.36-10.4,13.36s-10.1-4.08-10.1-12.08v-27.7c0-8,3.39-12.08,10.1-12.08s10.4,4.38,10.4,13.13c0,1.21,0,2.04-.15,4h-7.17c.15-1.59.15-2.26.15-3.47,0-5.59-.69-7.1-3.24-7.1-2.31,0-2.93,1.13-2.93,5.51v27.7c0,4.38.62,5.51,2.93,5.51,2.54,0,3.24-1.51,3.24-6.87,0-1.51-.08-2.87-.15-5.21h7.17Z" style="fill: #fff;"/>
          <path d="M359.88,122.42h-6.94l7.01-50.35h9.25l6.71,50.35h-7.01l-1.31-11.32h-6.47l-1.23,11.32ZM364.35,81.21l-2.47,23.32h4.93l-2.47-23.32Z" style="fill: #fff;"/>
        </g>
        <g>
          <path d="M240.06,52.86c0,4.72-.19,5.66-1.31,7.38-1.37,2.01-3.99,3.25-6.91,3.25s-5.54-1.24-6.91-3.25c-1.12-1.71-1.31-2.71-1.31-7.38v-19.35c0-4.66.19-5.66,1.31-7.38,1.37-1.95,3.99-3.19,6.91-3.19s5.54,1.24,6.91,3.19c1.12,1.71,1.31,2.71,1.31,7.38v19.35ZM234.27,31.26c0-2.24-.68-3.19-2.43-3.19s-2.43.94-2.43,3.19v23.9c0,2.24.69,3.19,2.43,3.19s2.43-.94,2.43-3.19v-23.9Z" style="fill: #fff;"/>
          <path d="M248.84,23.53c5.04,0,6.91.59,8.59,2.6,1.74,2.07,2.24,4.13,2.24,9.15s-.5,7.26-2.18,9.09c-1.5,1.65-4.05,2.54-7.54,2.54h-.81v15.99h-5.79V23.53h5.48ZM249.96,41.83c3.42,0,4.11-1.06,4.11-6.61s-.69-6.55-4.11-6.55h-.81v13.16h.81Z" style="fill: #fff;"/>
          <path d="M276.31,23.53v5.13h-8.22v11.03h5.73v5.13h-5.73v12.92h8.72v5.13h-14.51V23.53h14.01Z" style="fill: #fff;"/>
          <path d="M284.71,23.53c4.67,0,6.79.71,8.47,2.77,1.5,1.83,2.18,4.48,2.18,8.2,0,4.9-.56,6.67-2.93,9.56l4.05,18.82h-6.23l-3.36-16.93c-1,.18-1.18.18-2.05.24v16.7h-5.79V23.53h5.67ZM285.65,40.65c1.87,0,2.93-.41,3.49-1.42.44-.77.56-1.71.56-5.31,0-4.25-.81-5.25-4.05-5.25h-.81v11.98h.81Z" style="fill: #fff;"/>
          <path d="M303.96,62.89h-5.6l5.67-39.36h7.47l5.42,39.36h-5.67l-1.06-8.85h-5.23l-1,8.85ZM307.57,30.67l-1.99,18.23h3.99l-1.99-18.23Z" style="fill: #fff;"/>
          <path d="M335.9,48.91c.06,2.12.12,3.07.12,4.13,0,7.02-2.74,10.44-8.41,10.44s-8.16-3.19-8.16-9.44v-21.65c0-6.25,2.74-9.44,8.16-9.44s8.41,3.42,8.41,10.27c0,.94,0,1.59-.12,3.13h-5.79c.12-1.24.12-1.77.12-2.71,0-4.37-.56-5.55-2.62-5.55-1.87,0-2.37.89-2.37,4.31v21.65c0,3.42.5,4.31,2.37,4.31,2.05,0,2.62-1.18,2.62-5.37,0-1.18-.06-2.24-.12-4.07h5.79ZM330.17,66.62l-1.37,3.3h-2.93l1.06-3.3h-1.62v-2.01h4.86v2.01Z" style="fill: #fff;"/>
          <path d="M343.94,62.89h-5.6l5.67-39.36h7.47l5.42,39.36h-5.67l-1.06-8.85h-5.23l-1,8.85ZM342.5,17.45c1-.65,1.81-.89,2.93-.89.81,0,1.37.12,2.24.47,1.49.59,1.87.71,2.55.71.81,0,1.25-.18,2.49-1v4.07c-1.25.83-1.68,1-2.49,1-.69,0-1.06-.12-2.55-.71-.87-.35-1.43-.47-2.24-.47-1.12,0-1.93.24-2.93.88v-4.07ZM347.55,30.67l-1.99,18.23h3.99l-1.99-18.23Z" style="fill: #fff;"/>
          <path d="M375.88,52.86c0,4.72-.19,5.66-1.31,7.38-1.37,2.01-3.99,3.25-6.91,3.25s-5.54-1.24-6.91-3.25c-1.12-1.71-1.31-2.71-1.31-7.38v-19.35c0-4.66.19-5.66,1.31-7.38,1.37-1.95,3.99-3.19,6.91-3.19s5.54,1.24,6.91,3.19c1.12,1.71,1.31,2.71,1.31,7.38v19.35ZM370.09,31.26c0-2.24-.69-3.19-2.43-3.19s-2.43.94-2.43,3.19v23.9c0,2.24.68,3.19,2.43,3.19s2.43-.94,2.43-3.19v-23.9Z" style="fill: #fff;"/>
        </g>
        <g>
          <path d="M222.83,171.96c0-2.67.66-5.25,1.97-7.74,1.31-2.48,3.67-5.13,7.08-7.93l7.95-6.52c1.34-1.09,2.38-2.01,3.14-2.76.75-.75,1.34-1.54,1.75-2.35.41-.81.61-1.72.61-2.73s-.23-1.85-.68-2.66c-.45-.81-1.13-1.45-2.04-1.91-.9-.46-2-.69-3.3-.69-2.24,0-3.89.73-4.94,2.19-1.06,1.46-1.58,3.61-1.58,6.45h-10.47c0-3.55.69-6.59,2.07-9.12,1.38-2.53,3.35-4.44,5.92-5.73,2.56-1.29,5.61-1.94,9.15-1.94,3.23,0,6.09.59,8.57,1.75,2.48,1.17,4.4,2.8,5.75,4.89,1.36,2.09,2.04,4.49,2.04,7.21,0,2.26-.6,4.41-1.81,6.45-1.21,2.05-2.69,3.76-4.46,5.14l-8.15,6.33c-1.77,1.38-3.05,2.5-3.85,3.35-.8.86-1.26,1.66-1.39,2.41h19.98v8.4h-33.29v-2.51Z" style="fill: #fff;"/>
          <path d="M265.11,169.83c-2.97-3.72-4.46-9.71-4.46-17.98,0-5.6.68-10.12,2.04-13.57,1.36-3.45,3.33-5.93,5.92-7.46,2.59-1.52,5.8-2.29,9.63-2.29s6.99.76,9.6,2.29c2.61,1.53,4.6,4.01,5.98,7.46,1.38,3.45,2.07,7.97,2.07,13.57,0,8.27-1.5,14.27-4.49,17.98-3,3.72-7.38,5.58-13.16,5.58s-10.15-1.86-13.12-5.58ZM282.53,165.63c1.06-.96,1.84-2.55,2.36-4.76.52-2.21.78-5.22.78-9.02s-.26-6.67-.78-8.87c-.52-2.19-1.32-3.76-2.39-4.7-1.08-.94-2.5-1.41-4.27-1.41s-3.18.47-4.23,1.41-1.84,2.5-2.36,4.67c-.52,2.17-.78,5.14-.78,8.9s.26,6.76.78,8.99c.52,2.24,1.31,3.83,2.39,4.79,1.08.96,2.5,1.44,4.27,1.44s3.18-.48,4.23-1.44Z" style="fill: #fff;"/>
          <path d="M301.18,171.96c0-2.67.66-5.25,1.97-7.74,1.31-2.48,3.67-5.13,7.08-7.93l7.95-6.52c1.34-1.09,2.38-2.01,3.14-2.76.75-.75,1.34-1.54,1.75-2.35.41-.81.61-1.72.61-2.73s-.23-1.85-.68-2.66c-.45-.81-1.13-1.45-2.04-1.91-.9-.46-2-.69-3.3-.69-2.24,0-3.89.73-4.94,2.19-1.06,1.46-1.58,3.61-1.58,6.45h-10.47c0-3.55.69-6.59,2.07-9.12,1.38-2.53,3.35-4.44,5.92-5.73,2.56-1.29,5.61-1.94,9.15-1.94,3.23,0,6.09.59,8.57,1.75,2.48,1.17,4.4,2.8,5.75,4.89,1.36,2.09,2.04,4.49,2.04,7.21,0,2.26-.6,4.41-1.81,6.45-1.21,2.05-2.69,3.76-4.46,5.14l-8.15,6.33c-1.77,1.38-3.05,2.5-3.85,3.35-.8.86-1.26,1.66-1.39,2.41h19.98v8.4h-33.29v-2.51Z" style="fill: #fff;"/>
          <path d="M375.91,165.44h-5.95v9.02h-10.8v-9.02h-20.88v-7.52l19.78-28.13h11.9v27.38h5.95v8.27ZM359.49,157.17v-14.98l-10.34,14.98h10.34Z" style="fill: #fff;"/>
        </g>
      </g>
    </g>
    <g id="CNN">
      <rect id="CNN_plate" data-name="CNN plate" width="197.55" height="197.55" style="fill: #fff;"/>
      <g id="CNN-2" data-name="CNN">
        <path d="M164.94,63.27v57.83c0,2.3-1.44,4.23-3.58,4.81-.39.11-.82.17-1.26.17-1.63,0-3.51-.81-4.86-3.12-.07-.12-5.44-9.38-13.63-23.5-6.61-11.4-13.45-23.19-13.57-23.39-.75-1.28-1.8-1.88-2.81-1.61-.86.23-1.41,1.02-1.41,2v44.64c0,2.3-1.44,4.23-3.58,4.81-1.83.5-4.4-.01-6.12-2.95-.07-.13-5.8-10-12.44-21.44-6.86-11.83-14.64-25.24-14.77-25.45-.76-1.28-1.82-1.89-2.84-1.61-.66.18-1.42.81-1.42,1.99v43.66c0,2.87-2.53,5.4-5.4,5.4h-22.17c-14.75,0-26.74-12-26.74-26.74s12-26.74,26.74-26.74h11.51v-8.77h-11.5c-19.61,0-35.51,15.9-35.51,35.51s15.9,35.51,35.51,35.51h22.38c8.51,0,13.98-4.98,13.97-14.18v-20.25s14.28,24.59,14.93,25.71c9.06,15.39,26.19,9.03,26.19-4.22v-21.49s14.28,24.59,14.93,25.71c9.06,15.39,26.19,9.03,26.19-4.22v-58.08h-8.75Z" style="fill: #c00;"/>
        <path d="M31.27,98.78c0,13.13,10.68,23.82,23.82,23.82h22.17c1.4,0,2.48-1.33,2.48-2.47v-43.66c0-2.3,1.44-4.23,3.58-4.81,1.83-.5,4.4.01,6.12,2.95.09.16,7.56,13.02,14.77,25.47,6.34,10.93,12.32,21.25,12.43,21.42.76,1.28,1.82,1.89,2.84,1.61.66-.18,1.42-.81,1.42-1.99v-44.64c0-2.3,1.43-4.23,3.56-4.82,1.82-.5,4.37.02,6.1,2.95.09.15,6.64,11.45,13.58,23.41,6.64,11.45,13.5,23.28,13.62,23.48.76,1.28,1.82,1.89,2.84,1.61.66-.18,1.42-.81,1.42-1.99v-57.83s-8.79,0-8.79,0v34.43s-14.28-24.59-14.93-25.71c-9.06-15.39-26.19-9.03-26.19,4.22v21.49s-14.28-24.59-14.93-25.71c-9.06-15.39-26.19-9.03-26.19,4.22v35.22c0,1.28-.96,2.4-2.36,2.4h-13.44c-8.31,0-15.05-6.74-15.05-15.05s6.74-15.05,15.05-15.05h11.42v-8.77h-11.51c-13.13,0-23.82,10.68-23.82,23.82Z" style="fill: #c00;"/>
        <path id="piping" d="M28.35,98.78c0,14.74,12,26.74,26.74,26.74h22.17c2.88,0,5.4-2.52,5.4-5.4v-43.66c0-1.19.77-1.81,1.42-1.99,1.02-.28,2.08.32,2.84,1.61.12.21,7.9,13.62,14.77,25.45,6.63,11.43,12.36,21.31,12.44,21.44,1.73,2.93,4.3,3.45,6.12,2.95,2.14-.58,3.58-2.52,3.58-4.81v-44.64c0-.98.55-1.76,1.41-2,1.01-.27,2.06.33,2.81,1.61.12.2,6.96,11.99,13.57,23.39,8.19,14.11,13.56,23.37,13.63,23.5,1.36,2.3,3.23,3.12,4.86,3.12.44,0,.87-.06,1.26-.17,2.14-.58,3.58-2.52,3.58-4.81v-57.83s-2.92,0-2.92,0v57.83c0,1.19-.77,1.82-1.42,1.99-1.02.28-2.08-.32-2.84-1.61-.12-.2-6.98-12.04-13.62-23.48-6.94-11.96-13.49-23.26-13.58-23.41-1.73-2.93-4.28-3.44-6.1-2.95-2.13.58-3.56,2.52-3.56,4.82v44.64c0,1.19-.77,1.82-1.42,1.99-1.02.28-2.08-.32-2.84-1.61-.1-.18-6.09-10.5-12.43-21.42-7.22-12.44-14.68-25.31-14.77-25.47-1.73-2.93-4.3-3.45-6.12-2.95-2.14.58-3.58,2.52-3.58,4.81v43.66c0,1.14-1.08,2.47-2.48,2.47h-22.17c-13.13,0-23.82-10.68-23.82-23.82s10.68-23.82,23.82-23.82h11.51v-2.92h-11.51c-14.75,0-26.74,12-26.74,26.74Z" style="fill: #fff;"/>
      </g>
    </g>
  </g>
</svg>