<?xml version="1.0" encoding="UTF-8"?>
<svg xmlns="http://www.w3.org/2000/svg" version="1.1" viewBox="0 0 800 500">
  <!-- Generator: Adobe Illustrator 29.0.0, SVG Export Plug-In . SVG Version: 2.1.0 Build 186)  -->
  <defs>
    <style>
      .st0 {
        fill: #fff;
      }

      .st0, .st1, .st2 {
        isolation: isolate;
      }

      .st0, .st2 {
        font-family: ArialMT, Arial;
        font-size: 12px;
      }

      .st2 {
        stroke: gray;
        stroke-linecap: round;
        stroke-linejoin: round;
        stroke-width: 2px;
      }
    </style>
  </defs>
  <g id="Layer_1">
    <g>
      <g class="st1">
        <text class="st2" transform="translate(643.3 423.1)"><tspan x="0" y="0">FL</tspan></text>
        <text class="st2" transform="translate(643.6 435.1)"><tspan x="0" y="0">30</tspan></text>
      </g>
      <g class="st1">
        <text class="st2" transform="translate(605.7 354.1)"><tspan x="0" y="0">GA</tspan></text>
        <text class="st2" transform="translate(607.7 366.1)"><tspan x="0" y="0">16</tspan></text>
      </g>
      <g class="st1">
        <text class="st2" transform="translate(143.5 126)"><tspan x="0" y="0">ID</tspan></text>
        <text class="st2" transform="translate(146.1 138)"><tspan x="0" y="0">4</tspan></text>
      </g>
      <g class="st1">
        <text class="st2" transform="translate(500.7 214.3)"><tspan x="0" y="0">IL</tspan></text>
        <text class="st2" transform="translate(499.1 226.3)"><tspan x="0" y="0">19</tspan></text>
      </g>
      <g class="st1">
        <text class="st2" transform="translate(546.9 216.5)"><tspan x="0" y="0">IN</tspan></text>
        <text class="st2" transform="translate(546.3 228.5)"><tspan x="0" y="0">11</tspan></text>
      </g>
      <g class="st1">
        <text class="st2" transform="translate(438.6 181.5)"><tspan x="0" y="0">IA</tspan></text>
        <text class="st2" transform="translate(440.9 193.5)"><tspan x="0" y="0">6</tspan></text>
      </g>
      <g class="st1">
        <text class="st2" transform="translate(365 250.1)"><tspan x="0" y="0">KS</tspan></text>
        <text class="st2" transform="translate(369.7 262.1)"><tspan x="0" y="0">6</tspan></text>
      </g>
      <g class="st1">
        <text class="st2" transform="translate(572.5 255.8)"><tspan x="0" y="0">KY</tspan></text>
        <text class="st2" transform="translate(577.2 267.8)"><tspan x="0" y="0">8</tspan></text>
      </g>
      <g class="st1">
        <text class="st2" transform="translate(456.1 376.9)"><tspan x="0" y="0">LA</tspan></text>
        <text class="st2" transform="translate(460.1 388.9)"><tspan x="0" y="0">8</tspan></text>
      </g>
      <g class="st1">
        <text class="st2" transform="translate(758.2 66.3)"><tspan x="0" y="0">ME</tspan></text>
        <text class="st2" transform="translate(763.9 78.3)"><tspan x="0" y="0">4</tspan></text>
      </g>
      <g class="st1">
        <text class="st2" transform="translate(558.3 155.2)"><tspan x="0" y="0">MI</tspan></text>
        <text class="st2" transform="translate(558.3 167.2)"><tspan x="0" y="0">15</tspan></text>
      </g>
      <g class="st1">
        <text class="st2" transform="translate(418.6 94.5)"><tspan x="0" y="0">MN</tspan></text>
        <text class="st2" transform="translate(421.2 106.5)"><tspan x="0" y="0">10</tspan></text>
      </g>
      <g class="st1">
        <text class="st2" transform="translate(501.7 358.8)"><tspan x="0" y="0">MS</tspan></text>
        <text class="st2" transform="translate(507.4 370.8)"><tspan x="0" y="0">6</tspan></text>
      </g>
      <g class="st1">
        <text class="st2" transform="translate(451.1 254.5)"><tspan x="0" y="0">MO</tspan></text>
        <text class="st2" transform="translate(454.1 266.5)"><tspan x="0" y="0">10</tspan></text>
      </g>
      <g class="st1">
        <text class="st2" transform="translate(220.3 73.4)"><tspan x="0" y="0">MT</tspan></text>
        <text class="st2" transform="translate(225.6 85.4)"><tspan x="0" y="0">4</tspan></text>
      </g>
      <g class="st1">
        <text class="st2" transform="translate(345.9 191.3)"><tspan x="0" y="0">NE</tspan></text>
        <text class="st2" transform="translate(350.9 203.3)"><tspan x="0" y="0">5</tspan></text>
      </g>
      <g class="st1">
        <text class="st2" transform="translate(96.5 197.8)"><tspan x="0" y="0">NV</tspan></text>
        <text class="st2" transform="translate(101.5 209.8)"><tspan x="0" y="0">6</tspan></text>
      </g>
      <g class="st1">
        <text class="st2" transform="translate(240.9 319.7)"><tspan x="0" y="0">NM</tspan></text>
        <text class="st2" transform="translate(246.9 331.7)"><tspan x="0" y="0">5</tspan></text>
      </g>
      <g class="st1">
        <text class="st2" transform="translate(694.8 129.8)"><tspan x="0" y="0">NY</tspan></text>
        <text class="st2" transform="translate(696.4 141.8)"><tspan x="0" y="0">28</tspan></text>
      </g>
      <g class="st1">
        <text class="st2" transform="translate(672.9 284.9)"><tspan x="0" y="0">NC</tspan></text>
        <text class="st2" transform="translate(674.9 296.9)"><tspan x="0" y="0">16</tspan></text>
      </g>
      <g class="st1">
        <text class="st2" transform="translate(341.3 75.9)"><tspan x="0" y="0">ND</tspan></text>
        <text class="st2" transform="translate(346.6 87.9)"><tspan x="0" y="0">3</tspan></text>
      </g>
      <g class="st1">
        <text class="st2" transform="translate(591.3 204.6)"><tspan x="0" y="0">OH</tspan></text>
        <text class="st2" transform="translate(593.6 216.6)"><tspan x="0" y="0">17</tspan></text>
      </g>
      <g class="st1">
        <text class="st2" transform="translate(384.6 309.3)"><tspan x="0" y="0">OK</tspan></text>
        <text class="st2" transform="translate(389.9 321.3)"><tspan x="0" y="0">7</tspan></text>
      </g>
      <g class="st1">
        <text class="st2" transform="translate(63.1 103.6)"><tspan x="0" y="0">OR</tspan></text>
        <text class="st2" transform="translate(68.8 115.6)"><tspan x="0" y="0">8</tspan></text>
      </g>
      <g class="st1">
        <text class="st2" transform="translate(662.5 179.6)"><tspan x="0" y="0">PA</tspan></text>
        <text class="st2" transform="translate(663.8 191.6)"><tspan x="0" y="0">19</tspan></text>
      </g>
      <g class="st1">
        <text class="st2" transform="translate(642.2 321.9)"><tspan x="0" y="0">SC</tspan></text>
        <text class="st2" transform="translate(647.2 333.9)"><tspan x="0" y="0">9</tspan></text>
      </g>
      <g class="st1">
        <text class="st2" transform="translate(342.2 133.7)"><tspan x="0" y="0">SD</tspan></text>
        <text class="st2" transform="translate(347.2 145.7)"><tspan x="0" y="0">3</tspan></text>
      </g>
      <g class="st1">
        <text class="st2" transform="translate(550 295.1)"><tspan x="0" y="0">TN</tspan></text>
        <text class="st2" transform="translate(551.3 307.1)"><tspan x="0" y="0">11</tspan></text>
      </g>
      <g class="st1">
        <text class="st2" transform="translate(357 391.3)"><tspan x="0" y="0">TX</tspan></text>
        <text class="st2" transform="translate(358 403.3)"><tspan x="0" y="0">40</tspan></text>
      </g>
      <g class="st1">
        <text class="st2" transform="translate(170.6 219.5)"><tspan x="0" y="0">UT</tspan></text>
        <text class="st2" transform="translate(175.3 231.5)"><tspan x="0" y="0">6</tspan></text>
      </g>
      <g class="st1">
        <text class="st2" transform="translate(658.6 246)"><tspan x="0" y="0">VA</tspan></text>
        <text class="st2" transform="translate(659.9 258)"><tspan x="0" y="0">13</tspan></text>
      </g>
      <g class="st1">
        <text class="st2" transform="translate(86 37.7)"><tspan x="0" y="0">WA</tspan></text>
        <text class="st2" transform="translate(89 49.7)"><tspan x="0" y="0">12</tspan></text>
      </g>
      <g class="st1">
        <text class="st2" transform="translate(625.2 229.3)"><tspan x="0" y="0">WV</tspan></text>
        <text class="st2" transform="translate(631.6 241.3)"><tspan x="0" y="0">4</tspan></text>
      </g>
      <g class="st1">
        <text class="st2" transform="translate(484.2 124.8)"><tspan x="0" y="0">WI</tspan></text>
        <text class="st2" transform="translate(484.9 136.8)"><tspan x="0" y="0">10</tspan></text>
      </g>
      <g class="st1">
        <text class="st2" transform="translate(237.1 153.5)"><tspan x="0" y="0">WY</tspan></text>
        <text class="st2" transform="translate(243.4 165.5)"><tspan x="0" y="0">3</tspan></text>
      </g>
      <g class="st1">
        <text class="st2" transform="translate(41.4 241.9)"><tspan x="0" y="0">CA</tspan></text>
        <text class="st2" transform="translate(43 253.9)"><tspan x="0" y="0">54</tspan></text>
      </g>
      <g class="st1">
        <text class="st2" transform="translate(549.4 354)"><tspan x="0" y="0">AL</tspan></text>
        <text class="st2" transform="translate(553.4 366)"><tspan x="0" y="0">9</tspan></text>
      </g>
      <g class="st1">
        <text class="st2" transform="translate(258 233.8)"><tspan x="0" y="0">CO</tspan></text>
        <text class="st2" transform="translate(260.3 245.8)"><tspan x="0" y="0">10</tspan></text>
      </g>
      <g class="st1">
        <text class="st2" transform="translate(78 420.5)"><tspan x="0" y="0">AK</tspan></text>
        <text class="st2" transform="translate(82.7 432.5)"><tspan x="0" y="0">3</tspan></text>
      </g>
      <g class="st1">
        <text class="st2" transform="translate(155.3 311.4)"><tspan x="0" y="0">AZ</tspan></text>
        <text class="st2" transform="translate(156.3 323.4)"><tspan x="0" y="0">11</tspan></text>
      </g>
      <g class="st1">
        <text class="st2" transform="translate(455.4 317.8)"><tspan x="0" y="0">AR</tspan></text>
        <text class="st2" transform="translate(460.4 329.8)"><tspan x="0" y="0">6</tspan></text>
      </g>
    </g>
  </g>
  <g id="Layer_1_copy">
    <g>
      <g class="st1">
        <text class="st0" transform="translate(643.3 423.1)"><tspan x="0" y="0">FL</tspan></text>
        <text class="st0" transform="translate(643.6 435.1)"><tspan x="0" y="0">30</tspan></text>
      </g>
      <g class="st1">
        <text class="st0" transform="translate(605.7 354.1)"><tspan x="0" y="0">GA</tspan></text>
        <text class="st0" transform="translate(607.7 366.1)"><tspan x="0" y="0">16</tspan></text>
      </g>
      <g class="st1">
        <text class="st0" transform="translate(143.5 126)"><tspan x="0" y="0">ID</tspan></text>
        <text class="st0" transform="translate(146.1 138)"><tspan x="0" y="0">4</tspan></text>
      </g>
      <g class="st1">
        <text class="st0" transform="translate(500.7 214.3)"><tspan x="0" y="0">IL</tspan></text>
        <text class="st0" transform="translate(499.1 226.3)"><tspan x="0" y="0">19</tspan></text>
      </g>
      <g class="st1">
        <text class="st0" transform="translate(546.9 216.5)"><tspan x="0" y="0">IN</tspan></text>
        <text class="st0" transform="translate(546.3 228.5)"><tspan x="0" y="0">11</tspan></text>
      </g>
      <g class="st1">
        <text class="st0" transform="translate(438.6 181.5)"><tspan x="0" y="0">IA</tspan></text>
        <text class="st0" transform="translate(440.9 193.5)"><tspan x="0" y="0">6</tspan></text>
      </g>
      <g class="st1">
        <text class="st0" transform="translate(365 250.1)"><tspan x="0" y="0">KS</tspan></text>
        <text class="st0" transform="translate(369.7 262.1)"><tspan x="0" y="0">6</tspan></text>
      </g>
      <g class="st1">
        <text class="st0" transform="translate(572.5 255.8)"><tspan x="0" y="0">KY</tspan></text>
        <text class="st0" transform="translate(577.2 267.8)"><tspan x="0" y="0">8</tspan></text>
      </g>
      <g class="st1">
        <text class="st0" transform="translate(456.1 376.9)"><tspan x="0" y="0">LA</tspan></text>
        <text class="st0" transform="translate(460.1 388.9)"><tspan x="0" y="0">8</tspan></text>
      </g>
      <g class="st1">
        <text class="st0" transform="translate(758.2 66.3)"><tspan x="0" y="0">ME</tspan></text>
        <text class="st0" transform="translate(763.9 78.3)"><tspan x="0" y="0">4</tspan></text>
      </g>
      <g class="st1">
        <text class="st0" transform="translate(558.3 155.2)"><tspan x="0" y="0">MI</tspan></text>
        <text class="st0" transform="translate(558.3 167.2)"><tspan x="0" y="0">15</tspan></text>
      </g>
      <g class="st1">
        <text class="st0" transform="translate(418.6 94.5)"><tspan x="0" y="0">MN</tspan></text>
        <text class="st0" transform="translate(421.2 106.5)"><tspan x="0" y="0">10</tspan></text>
      </g>
      <g class="st1">
        <text class="st0" transform="translate(501.7 358.8)"><tspan x="0" y="0">MS</tspan></text>
        <text class="st0" transform="translate(507.4 370.8)"><tspan x="0" y="0">6</tspan></text>
      </g>
      <g class="st1">
        <text class="st0" transform="translate(451.1 254.5)"><tspan x="0" y="0">MO</tspan></text>
        <text class="st0" transform="translate(454.1 266.5)"><tspan x="0" y="0">10</tspan></text>
      </g>
      <g class="st1">
        <text class="st0" transform="translate(220.3 73.4)"><tspan x="0" y="0">MT</tspan></text>
        <text class="st0" transform="translate(225.6 85.4)"><tspan x="0" y="0">4</tspan></text>
      </g>
      <g class="st1">
        <text class="st0" transform="translate(345.9 191.3)"><tspan x="0" y="0">NE</tspan></text>
        <text class="st0" transform="translate(350.9 203.3)"><tspan x="0" y="0">5</tspan></text>
      </g>
      <g class="st1">
        <text class="st0" transform="translate(96.5 197.8)"><tspan x="0" y="0">NV</tspan></text>
        <text class="st0" transform="translate(101.5 209.8)"><tspan x="0" y="0">6</tspan></text>
      </g>
      <g class="st1">
        <text class="st0" transform="translate(240.9 319.7)"><tspan x="0" y="0">NM</tspan></text>
        <text class="st0" transform="translate(246.9 331.7)"><tspan x="0" y="0">5</tspan></text>
      </g>
      <g class="st1">
        <text class="st0" transform="translate(694.8 129.8)"><tspan x="0" y="0">NY</tspan></text>
        <text class="st0" transform="translate(696.4 141.8)"><tspan x="0" y="0">28</tspan></text>
      </g>
      <g class="st1">
        <text class="st0" transform="translate(672.9 284.9)"><tspan x="0" y="0">NC</tspan></text>
        <text class="st0" transform="translate(674.9 296.9)"><tspan x="0" y="0">16</tspan></text>
      </g>
      <g class="st1">
        <text class="st0" transform="translate(341.3 75.9)"><tspan x="0" y="0">ND</tspan></text>
        <text class="st0" transform="translate(346.6 87.9)"><tspan x="0" y="0">3</tspan></text>
      </g>
      <g class="st1">
        <text class="st0" transform="translate(591.3 204.6)"><tspan x="0" y="0">OH</tspan></text>
        <text class="st0" transform="translate(593.6 216.6)"><tspan x="0" y="0">17</tspan></text>
      </g>
      <g class="st1">
        <text class="st0" transform="translate(384.6 309.3)"><tspan x="0" y="0">OK</tspan></text>
        <text class="st0" transform="translate(389.9 321.3)"><tspan x="0" y="0">7</tspan></text>
      </g>
      <g class="st1">
        <text class="st0" transform="translate(63.1 103.6)"><tspan x="0" y="0">OR</tspan></text>
        <text class="st0" transform="translate(68.8 115.6)"><tspan x="0" y="0">8</tspan></text>
      </g>
      <g class="st1">
        <text class="st0" transform="translate(662.5 179.6)"><tspan x="0" y="0">PA</tspan></text>
        <text class="st0" transform="translate(663.8 191.6)"><tspan x="0" y="0">19</tspan></text>
      </g>
      <g class="st1">
        <text class="st0" transform="translate(642.2 321.9)"><tspan x="0" y="0">SC</tspan></text>
        <text class="st0" transform="translate(647.2 333.9)"><tspan x="0" y="0">9</tspan></text>
      </g>
      <g class="st1">
        <text class="st0" transform="translate(342.2 133.7)"><tspan x="0" y="0">SD</tspan></text>
        <text class="st0" transform="translate(347.2 145.7)"><tspan x="0" y="0">3</tspan></text>
      </g>
      <g class="st1">
        <text class="st0" transform="translate(550 295.1)"><tspan x="0" y="0">TN</tspan></text>
        <text class="st0" transform="translate(551.3 307.1)"><tspan x="0" y="0">11</tspan></text>
      </g>
      <g class="st1">
        <text class="st0" transform="translate(357 391.3)"><tspan x="0" y="0">TX</tspan></text>
        <text class="st0" transform="translate(358 403.3)"><tspan x="0" y="0">40</tspan></text>
      </g>
      <g class="st1">
        <text class="st0" transform="translate(170.6 219.5)"><tspan x="0" y="0">UT</tspan></text>
        <text class="st0" transform="translate(175.3 231.5)"><tspan x="0" y="0">6</tspan></text>
      </g>
      <g class="st1">
        <text class="st0" transform="translate(658.6 246)"><tspan x="0" y="0">VA</tspan></text>
        <text class="st0" transform="translate(659.9 258)"><tspan x="0" y="0">13</tspan></text>
      </g>
      <g class="st1">
        <text class="st0" transform="translate(86 37.7)"><tspan x="0" y="0">WA</tspan></text>
        <text class="st0" transform="translate(89 49.7)"><tspan x="0" y="0">12</tspan></text>
      </g>
      <g class="st1">
        <text class="st0" transform="translate(625.2 229.3)"><tspan x="0" y="0">WV</tspan></text>
        <text class="st0" transform="translate(631.6 241.3)"><tspan x="0" y="0">4</tspan></text>
      </g>
      <g class="st1">
        <text class="st0" transform="translate(484.2 124.8)"><tspan x="0" y="0">WI</tspan></text>
        <text class="st0" transform="translate(484.9 136.8)"><tspan x="0" y="0">10</tspan></text>
      </g>
      <g class="st1">
        <text class="st0" transform="translate(237.1 153.5)"><tspan x="0" y="0">WY</tspan></text>
        <text class="st0" transform="translate(243.4 165.5)"><tspan x="0" y="0">3</tspan></text>
      </g>
      <g class="st1">
        <text class="st0" transform="translate(41.4 241.9)"><tspan x="0" y="0">CA</tspan></text>
        <text class="st0" transform="translate(43 253.9)"><tspan x="0" y="0">54</tspan></text>
      </g>
      <g class="st1">
        <text class="st0" transform="translate(549.4 354)"><tspan x="0" y="0">AL</tspan></text>
        <text class="st0" transform="translate(553.4 366)"><tspan x="0" y="0">9</tspan></text>
      </g>
      <g class="st1">
        <text class="st0" transform="translate(258 233.8)"><tspan x="0" y="0">CO</tspan></text>
        <text class="st0" transform="translate(260.3 245.8)"><tspan x="0" y="0">10</tspan></text>
      </g>
      <g class="st1">
        <text class="st0" transform="translate(78 420.5)"><tspan x="0" y="0">AK</tspan></text>
        <text class="st0" transform="translate(82.7 432.5)"><tspan x="0" y="0">3</tspan></text>
      </g>
      <g class="st1">
        <text class="st0" transform="translate(155.3 311.4)"><tspan x="0" y="0">AZ</tspan></text>
        <text class="st0" transform="translate(156.3 323.4)"><tspan x="0" y="0">11</tspan></text>
      </g>
      <g class="st1">
        <text class="st0" transform="translate(455.4 317.8)"><tspan x="0" y="0">AR</tspan></text>
        <text class="st0" transform="translate(460.4 329.8)"><tspan x="0" y="0">6</tspan></text>
      </g>
    </g>
  </g>
</svg>