<?xml version="1.0" encoding="UTF-8"?>
<svg id="Layer_2" xmlns="http://www.w3.org/2000/svg" version="1.1" viewBox="0 0 800 500">
  <!-- Generator: Adobe Illustrator 29.0.0, SVG Export Plug-In . SVG Version: 2.1.0 Build 186)  -->
  <defs>
    <style>
      .st0 {
        fill: none;
        stroke: #000;
        stroke-linecap: round;
        stroke-linejoin: round;
        stroke-width: 2px;
      }

      .st0, .st1 {
        font-family: CNNSans-Regular, 'CNN Sans';
        font-size: 12px;
      }

      .st1 {
        fill: #fff;
      }
    </style>
  </defs>
  <g>
    <g>
      <text class="st0" transform="translate(643.5 423.1)"><tspan x="0" y="0">FL</tspan></text>
      <text class="st0" transform="translate(643 435.1)"><tspan x="0" y="0">30</tspan></text>
    </g>
    <g>
      <text class="st0" transform="translate(605.7 354.1)"><tspan x="0" y="0">GA</tspan></text>
      <text class="st0" transform="translate(607.8 366.1)"><tspan x="0" y="0">16</tspan></text>
    </g>
    <g>
      <text class="st0" transform="translate(143.4 126)"><tspan x="0" y="0">ID</tspan></text>
      <text class="st0" transform="translate(145.8 138)"><tspan x="0" y="0">4</tspan></text>
    </g>
    <g>
      <text class="st0" transform="translate(500.6 214.3)"><tspan x="0" y="0">IL</tspan></text>
      <text class="st0" transform="translate(499.2 226.3)"><tspan x="0" y="0">19</tspan></text>
    </g>
    <g>
      <text class="st0" transform="translate(546.8 216.5)"><tspan x="0" y="0">IN</tspan></text>
      <text class="st0" transform="translate(547 228.5)"><tspan x="0" y="0">11</tspan></text>
    </g>
    <g>
      <text class="st0" transform="translate(438.5 181.5)"><tspan x="0" y="0">IA</tspan></text>
      <text class="st0" transform="translate(440.7 193.5)"><tspan x="0" y="0">6</tspan></text>
    </g>
    <g>
      <text class="st0" transform="translate(365.1 250.1)"><tspan x="0" y="0">KS</tspan></text>
      <text class="st0" transform="translate(369.4 262.1)"><tspan x="0" y="0">6</tspan></text>
    </g>
    <g>
      <text class="st0" transform="translate(572.7 255.8)"><tspan x="0" y="0">KY</tspan></text>
      <text class="st0" transform="translate(576.9 267.8)"><tspan x="0" y="0">8</tspan></text>
    </g>
    <g>
      <text class="st0" transform="translate(456 376.9)"><tspan x="0" y="0">LA</tspan></text>
      <text class="st0" transform="translate(459.8 388.9)"><tspan x="0" y="0">8</tspan></text>
    </g>
    <g>
      <text class="st0" transform="translate(758.1 66.3)"><tspan x="0" y="0">ME</tspan></text>
      <text class="st0" transform="translate(763.6 78.3)"><tspan x="0" y="0">4</tspan></text>
    </g>
    <g>
      <text class="st0" transform="translate(557.9 155.2)"><tspan x="0" y="0">MI</tspan></text>
      <text class="st0" transform="translate(558.3 167.2)"><tspan x="0" y="0">15</tspan></text>
    </g>
    <g>
      <text class="st0" transform="translate(418 94.5)"><tspan x="0" y="0">MN</tspan></text>
      <text class="st0" transform="translate(421.2 106.5)"><tspan x="0" y="0">10</tspan></text>
    </g>
    <g>
      <text class="st0" transform="translate(501.5 358.8)"><tspan x="0" y="0">MS</tspan></text>
      <text class="st0" transform="translate(507.1 370.8)"><tspan x="0" y="0">6</tspan></text>
    </g>
    <g>
      <text class="st0" transform="translate(450.7 254.5)"><tspan x="0" y="0">MO</tspan></text>
      <text class="st0" transform="translate(454.1 266.5)"><tspan x="0" y="0">10</tspan></text>
    </g>
    <g>
      <text class="st0" transform="translate(220.1 73.4)"><tspan x="0" y="0">MT</tspan></text>
      <text class="st0" transform="translate(225.3 85.4)"><tspan x="0" y="0">4</tspan></text>
    </g>
    <g>
      <text class="st0" transform="translate(346 191.3)"><tspan x="0" y="0">NE</tspan></text>
      <text class="st0" transform="translate(350.6 203.3)"><tspan x="0" y="0">5</tspan></text>
    </g>
    <g>
      <text class="st0" transform="translate(96.7 197.8)"><tspan x="0" y="0">NV</tspan></text>
      <text class="st0" transform="translate(101.3 209.8)"><tspan x="0" y="0">6</tspan></text>
    </g>
    <g>
      <text class="st0" transform="translate(240.4 319.7)"><tspan x="0" y="0">NM</tspan></text>
      <text class="st0" transform="translate(246.6 331.7)"><tspan x="0" y="0">5</tspan></text>
    </g>
    <g>
      <text class="st0" transform="translate(694.9 129.8)"><tspan x="0" y="0">NY</tspan></text>
      <text class="st0" transform="translate(695.9 141.8)"><tspan x="0" y="0">28</tspan></text>
    </g>
    <g>
      <text class="st0" transform="translate(672.8 284.9)"><tspan x="0" y="0">NC</tspan></text>
      <text class="st0" transform="translate(675 296.9)"><tspan x="0" y="0">16</tspan></text>
    </g>
    <g>
      <text class="st0" transform="translate(341.1 75.9)"><tspan x="0" y="0">ND</tspan></text>
      <text class="st0" transform="translate(346.3 87.9)"><tspan x="0" y="0">3</tspan></text>
    </g>
    <g>
      <text class="st0" transform="translate(591.2 204.6)"><tspan x="0" y="0">OH</tspan></text>
      <text class="st0" transform="translate(594.1 216.6)"><tspan x="0" y="0">17</tspan></text>
    </g>
    <g>
      <text class="st0" transform="translate(384.5 309.3)"><tspan x="0" y="0">OK</tspan></text>
      <text class="st0" transform="translate(390.1 321.3)"><tspan x="0" y="0">7</tspan></text>
    </g>
    <g>
      <text class="st0" transform="translate(63.3 103.6)"><tspan x="0" y="0">OR</tspan></text>
      <text class="st0" transform="translate(68.5 115.6)"><tspan x="0" y="0">8</tspan></text>
    </g>
    <g>
      <text class="st0" transform="translate(662.6 179.6)"><tspan x="0" y="0">PA</tspan></text>
      <text class="st0" transform="translate(663.9 191.6)"><tspan x="0" y="0">19</tspan></text>
    </g>
    <g>
      <text class="st0" transform="translate(642.5 321.9)"><tspan x="0" y="0">SC</tspan></text>
      <text class="st0" transform="translate(646.9 333.9)"><tspan x="0" y="0">9</tspan></text>
    </g>
    <g>
      <text class="st0" transform="translate(342.3 133.7)"><tspan x="0" y="0">SD</tspan></text>
      <text class="st0" transform="translate(346.9 145.7)"><tspan x="0" y="0">3</tspan></text>
    </g>
    <g>
      <text class="st0" transform="translate(550.1 295.1)"><tspan x="0" y="0">TN</tspan></text>
      <text class="st0" transform="translate(552 307.1)"><tspan x="0" y="0">11</tspan></text>
    </g>
    <g>
      <text class="st0" transform="translate(357.6 391.3)"><tspan x="0" y="0">TX</tspan></text>
      <text class="st0" transform="translate(357.3 403.3)"><tspan x="0" y="0">40</tspan></text>
    </g>
    <g>
      <text class="st0" transform="translate(170.8 219.5)"><tspan x="0" y="0">UT</tspan></text>
      <text class="st0" transform="translate(175 231.5)"><tspan x="0" y="0">6</tspan></text>
    </g>
    <g>
      <text class="st0" transform="translate(658.7 246)"><tspan x="0" y="0">VA</tspan></text>
      <text class="st0" transform="translate(660 258)"><tspan x="0" y="0">13</tspan></text>
    </g>
    <g>
      <text class="st0" transform="translate(85.6 37.7)"><tspan x="0" y="0">WA</tspan></text>
      <text class="st0" transform="translate(89.1 49.7)"><tspan x="0" y="0">12</tspan></text>
    </g>
    <g>
      <text class="st0" transform="translate(625.2 229.3)"><tspan x="0" y="0">WV</tspan></text>
      <text class="st0" transform="translate(631.3 241.3)"><tspan x="0" y="0">4</tspan></text>
    </g>
    <g>
      <text class="st0" transform="translate(483.9 124.8)"><tspan x="0" y="0">WI</tspan></text>
      <text class="st0" transform="translate(484.9 136.8)"><tspan x="0" y="0">10</tspan></text>
    </g>
    <g>
      <text class="st0" transform="translate(237.1 153.5)"><tspan x="0" y="0">WY</tspan></text>
      <text class="st0" transform="translate(243.2 165.5)"><tspan x="0" y="0">3</tspan></text>
    </g>
    <g>
      <text class="st0" transform="translate(41.4 241.9)"><tspan x="0" y="0">CA</tspan></text>
      <text class="st0" transform="translate(42.4 253.9)"><tspan x="0" y="0">54</tspan></text>
    </g>
    <g>
      <text class="st0" transform="translate(549.3 354)"><tspan x="0" y="0">AL</tspan></text>
      <text class="st0" transform="translate(553.2 366)"><tspan x="0" y="0">9</tspan></text>
    </g>
    <g>
      <text class="st0" transform="translate(258.1 233.8)"><tspan x="0" y="0">CO</tspan></text>
      <text class="st0" transform="translate(260.3 245.8)"><tspan x="0" y="0">10</tspan></text>
    </g>
    <g>
      <text class="st0" transform="translate(77.9 420.5)"><tspan x="0" y="0">AK</tspan></text>
      <text class="st0" transform="translate(82.4 432.5)"><tspan x="0" y="0">3</tspan></text>
    </g>
    <g>
      <text class="st0" transform="translate(155.2 311.4)"><tspan x="0" y="0">AZ</tspan></text>
      <text class="st0" transform="translate(156.9 323.4)"><tspan x="0" y="0">11</tspan></text>
    </g>
    <g>
      <text class="st0" transform="translate(455.5 317.8)"><tspan x="0" y="0">AR</tspan></text>
      <text class="st0" transform="translate(460.2 329.8)"><tspan x="0" y="0">6</tspan></text>
    </g>
  </g>
  <g>
    <g>
      <text class="st1" transform="translate(643.5 423.1)"><tspan x="0" y="0">FL</tspan></text>
      <text class="st1" transform="translate(643 435.1)"><tspan x="0" y="0">30</tspan></text>
    </g>
    <g>
      <text class="st1" transform="translate(605.7 354.1)"><tspan x="0" y="0">GA</tspan></text>
      <text class="st1" transform="translate(607.8 366.1)"><tspan x="0" y="0">16</tspan></text>
    </g>
    <g>
      <text class="st1" transform="translate(143.4 126)"><tspan x="0" y="0">ID</tspan></text>
      <text class="st1" transform="translate(145.8 138)"><tspan x="0" y="0">4</tspan></text>
    </g>
    <g>
      <text class="st1" transform="translate(500.6 214.3)"><tspan x="0" y="0">IL</tspan></text>
      <text class="st1" transform="translate(499.2 226.3)"><tspan x="0" y="0">19</tspan></text>
    </g>
    <g>
      <text class="st1" transform="translate(546.8 216.5)"><tspan x="0" y="0">IN</tspan></text>
      <text class="st1" transform="translate(547 228.5)"><tspan x="0" y="0">11</tspan></text>
    </g>
    <g>
      <text class="st1" transform="translate(438.5 181.5)"><tspan x="0" y="0">IA</tspan></text>
      <text class="st1" transform="translate(440.7 193.5)"><tspan x="0" y="0">6</tspan></text>
    </g>
    <g>
      <text class="st1" transform="translate(365.1 250.1)"><tspan x="0" y="0">KS</tspan></text>
      <text class="st1" transform="translate(369.4 262.1)"><tspan x="0" y="0">6</tspan></text>
    </g>
    <g>
      <text class="st1" transform="translate(572.7 255.8)"><tspan x="0" y="0">KY</tspan></text>
      <text class="st1" transform="translate(576.9 267.8)"><tspan x="0" y="0">8</tspan></text>
    </g>
    <g>
      <text class="st1" transform="translate(456 376.9)"><tspan x="0" y="0">LA</tspan></text>
      <text class="st1" transform="translate(459.8 388.9)"><tspan x="0" y="0">8</tspan></text>
    </g>
    <g>
      <text class="st1" transform="translate(758.1 66.3)"><tspan x="0" y="0">ME</tspan></text>
      <text class="st1" transform="translate(763.6 78.3)"><tspan x="0" y="0">4</tspan></text>
    </g>
    <g>
      <text class="st1" transform="translate(557.9 155.2)"><tspan x="0" y="0">MI</tspan></text>
      <text class="st1" transform="translate(558.3 167.2)"><tspan x="0" y="0">15</tspan></text>
    </g>
    <g>
      <text class="st1" transform="translate(418 94.5)"><tspan x="0" y="0">MN</tspan></text>
      <text class="st1" transform="translate(421.2 106.5)"><tspan x="0" y="0">10</tspan></text>
    </g>
    <g>
      <text class="st1" transform="translate(501.5 358.8)"><tspan x="0" y="0">MS</tspan></text>
      <text class="st1" transform="translate(507.1 370.8)"><tspan x="0" y="0">6</tspan></text>
    </g>
    <g>
      <text class="st1" transform="translate(450.7 254.5)"><tspan x="0" y="0">MO</tspan></text>
      <text class="st1" transform="translate(454.1 266.5)"><tspan x="0" y="0">10</tspan></text>
    </g>
    <g>
      <text class="st1" transform="translate(220.1 73.4)"><tspan x="0" y="0">MT</tspan></text>
      <text class="st1" transform="translate(225.3 85.4)"><tspan x="0" y="0">4</tspan></text>
    </g>
    <g>
      <text class="st1" transform="translate(346 191.3)"><tspan x="0" y="0">NE</tspan></text>
      <text class="st1" transform="translate(350.6 203.3)"><tspan x="0" y="0">5</tspan></text>
    </g>
    <g>
      <text class="st1" transform="translate(96.7 197.8)"><tspan x="0" y="0">NV</tspan></text>
      <text class="st1" transform="translate(101.3 209.8)"><tspan x="0" y="0">6</tspan></text>
    </g>
    <g>
      <text class="st1" transform="translate(240.4 319.7)"><tspan x="0" y="0">NM</tspan></text>
      <text class="st1" transform="translate(246.6 331.7)"><tspan x="0" y="0">5</tspan></text>
    </g>
    <g>
      <text class="st1" transform="translate(694.9 129.8)"><tspan x="0" y="0">NY</tspan></text>
      <text class="st1" transform="translate(695.9 141.8)"><tspan x="0" y="0">28</tspan></text>
    </g>
    <g>
      <text class="st1" transform="translate(672.8 284.9)"><tspan x="0" y="0">NC</tspan></text>
      <text class="st1" transform="translate(675 296.9)"><tspan x="0" y="0">16</tspan></text>
    </g>
    <g>
      <text class="st1" transform="translate(341.1 75.9)"><tspan x="0" y="0">ND</tspan></text>
      <text class="st1" transform="translate(346.3 87.9)"><tspan x="0" y="0">3</tspan></text>
    </g>
    <g>
      <text class="st1" transform="translate(591.2 204.6)"><tspan x="0" y="0">OH</tspan></text>
      <text class="st1" transform="translate(594.1 216.6)"><tspan x="0" y="0">17</tspan></text>
    </g>
    <g>
      <text class="st1" transform="translate(384.5 309.3)"><tspan x="0" y="0">OK</tspan></text>
      <text class="st1" transform="translate(390.1 321.3)"><tspan x="0" y="0">7</tspan></text>
    </g>
    <g>
      <text class="st1" transform="translate(63.3 103.6)"><tspan x="0" y="0">OR</tspan></text>
      <text class="st1" transform="translate(68.5 115.6)"><tspan x="0" y="0">8</tspan></text>
    </g>
    <g>
      <text class="st1" transform="translate(662.6 179.6)"><tspan x="0" y="0">PA</tspan></text>
      <text class="st1" transform="translate(663.9 191.6)"><tspan x="0" y="0">19</tspan></text>
    </g>
    <g>
      <text class="st1" transform="translate(642.5 321.9)"><tspan x="0" y="0">SC</tspan></text>
      <text class="st1" transform="translate(646.9 333.9)"><tspan x="0" y="0">9</tspan></text>
    </g>
    <g>
      <text class="st1" transform="translate(342.3 133.7)"><tspan x="0" y="0">SD</tspan></text>
      <text class="st1" transform="translate(346.9 145.7)"><tspan x="0" y="0">3</tspan></text>
    </g>
    <g>
      <text class="st1" transform="translate(550.1 295.1)"><tspan x="0" y="0">TN</tspan></text>
      <text class="st1" transform="translate(552 307.1)"><tspan x="0" y="0">11</tspan></text>
    </g>
    <g>
      <text class="st1" transform="translate(357.6 391.3)"><tspan x="0" y="0">TX</tspan></text>
      <text class="st1" transform="translate(357.3 403.3)"><tspan x="0" y="0">40</tspan></text>
    </g>
    <g>
      <text class="st1" transform="translate(170.8 219.5)"><tspan x="0" y="0">UT</tspan></text>
      <text class="st1" transform="translate(175 231.5)"><tspan x="0" y="0">6</tspan></text>
    </g>
    <g>
      <text class="st1" transform="translate(658.7 246)"><tspan x="0" y="0">VA</tspan></text>
      <text class="st1" transform="translate(660 258)"><tspan x="0" y="0">13</tspan></text>
    </g>
    <g>
      <text class="st1" transform="translate(85.6 37.7)"><tspan x="0" y="0">WA</tspan></text>
      <text class="st1" transform="translate(89.1 49.7)"><tspan x="0" y="0">12</tspan></text>
    </g>
    <g>
      <text class="st1" transform="translate(625.2 229.3)"><tspan x="0" y="0">WV</tspan></text>
      <text class="st1" transform="translate(631.3 241.3)"><tspan x="0" y="0">4</tspan></text>
    </g>
    <g>
      <text class="st1" transform="translate(483.9 124.8)"><tspan x="0" y="0">WI</tspan></text>
      <text class="st1" transform="translate(484.9 136.8)"><tspan x="0" y="0">10</tspan></text>
    </g>
    <g>
      <text class="st1" transform="translate(237.1 153.5)"><tspan x="0" y="0">WY</tspan></text>
      <text class="st1" transform="translate(243.2 165.5)"><tspan x="0" y="0">3</tspan></text>
    </g>
    <g>
      <text class="st1" transform="translate(41.4 241.9)"><tspan x="0" y="0">CA</tspan></text>
      <text class="st1" transform="translate(42.4 253.9)"><tspan x="0" y="0">54</tspan></text>
    </g>
    <g>
      <text class="st1" transform="translate(549.3 354)"><tspan x="0" y="0">AL</tspan></text>
      <text class="st1" transform="translate(553.2 366)"><tspan x="0" y="0">9</tspan></text>
    </g>
    <g>
      <text class="st1" transform="translate(258.1 233.8)"><tspan x="0" y="0">CO</tspan></text>
      <text class="st1" transform="translate(260.3 245.8)"><tspan x="0" y="0">10</tspan></text>
    </g>
    <g>
      <text class="st1" transform="translate(77.9 420.5)"><tspan x="0" y="0">AK</tspan></text>
      <text class="st1" transform="translate(82.4 432.5)"><tspan x="0" y="0">3</tspan></text>
    </g>
    <g>
      <text class="st1" transform="translate(155.2 311.4)"><tspan x="0" y="0">AZ</tspan></text>
      <text class="st1" transform="translate(156.9 323.4)"><tspan x="0" y="0">11</tspan></text>
    </g>
    <g>
      <text class="st1" transform="translate(455.5 317.8)"><tspan x="0" y="0">AR</tspan></text>
      <text class="st1" transform="translate(460.2 329.8)"><tspan x="0" y="0">6</tspan></text>
    </g>
  </g>
</svg>