<?xml version="1.0" encoding="UTF-8"?>
<svg id="Layer_1" xmlns="http://www.w3.org/2000/svg" version="1.1" viewBox="0 0 800 500">
  <!-- Generator: Adobe Illustrator 29.0.0, SVG Export Plug-In . SVG Version: 2.1.0 Build 186)  -->
  <defs>
    <style>
      .st0 {
        stroke: #fff;
        stroke-width: 2px;
      }

      .st0, .st1 {
        fill: none;
        stroke-miterlimit: 10;
      }

      .st0, .st2, .st3 {
        isolation: isolate;
      }

      .st0, .st3 {
        font-family: CNNSans-Bold, 'CNN Sans';
        font-size: 10px;
        font-weight: 700;
      }

      .st1 {
        stroke: #993030;
      }
    </style>
  </defs>
  <path id="path-geo-id-28" class="st1" d="M486.3,355.1l-.7,1.6,1.2,1.5-.2,1.8,1.7.8-1.4,1.3,1,1.7v1.7c0,0,2.2.4,2.2.4l1,1.8-1.9,2-2.1,1v1.2c0,0,2.1.6,2.1.6l-.5,1.6-1.9,2.2-2.2,1.2-.7,4-1.9,2.3.2,4.9-1.6,3.1v2.3c.1,0,9.3-.4,9.3-.4l21.7-1.3-.3,3.4-.8,3.1,1.5,2.9,1.5,1.1.8,3,2.2,2,1.6-1.5,6.8-3.1,3.1-.4,6,.8.9-.8-3.6-29.2.3-10.8.4-24.7.6-22.8-1.8-1.9-15,1.2-18,1.2,1,1.7-2.5,1.6-.6,3.1-1.8,1.2.7,1.5-.9,2.9-2.2.6.3,1.2-3,4,1,1.5-3.1,1.2.7,3.8-.4,2.4h-2.2s0,1.9,0,1.9l2.7,6.5v1.5s-1.1,2.8-1.1,2.8Z"/>
  <path id="path-geo-id-37" class="st1" d="M627.7,271.2v2.3c0,0-2.7,3.7-2.7,3.7l-1.4,3.8-1.8-.3-2.1.6-1.7,1.3-.6,1.6-2.2,1.1-.6-1.8-3.9,3.3.2,1.6-1,1.5h-1.4c0-.1-2.3,1.4-2.3,1.4l-.9,1.5-2.6,2.1-4.2.6-1.6,1.1-1.8,2.3.2,2.1-1.2,1.1-2.8.9v4.6c0,0,11-1.4,11-1.4l7.9-1.3,6.3-3,4.3-2.7.4.6,3-.7,17.7-1.8,1.8.5,2.9,2.9v2.3c.1,0,17.6-2.6,17.6-2.6l20.9,15,2.3-1.5,6.7-1.1.6-3.8,2-5.1,2.6-3.2,2.3-2,1.5-2.2,4.5-2.7,4.1-.7,2.2-1.4,1.5-2.4-2.8-2.1-2,.8,1.2-5.4-2-2.3,2.7.3,2.2-.3,2.6-1.1,1.4-3.4,2.6-1.6.4-2.4-1.3-3.5-2.2-1.4-1.4,2.1-1.6-1.7-1.7.3-2.8,1.8-1.7-1.4,1.6-2.5,1.8.4,4.1-3.2-.8-2.9v-3.7c.1,0-14,3-14,3l-1.6.5-24,4.7-15.1,2.7-11.9,2-8.3,1.1-12.8,1.4Z"/>
  <path id="path-geo-id-40" class="st1" d="M301.8,275.8l-.7,9.7,18,1.2,20,1.1,8,.4-1.6,37.6,1.8.3,2.9,3.4,1.8-.7,2.9.8.3-1.5,2.6,2.4.2,2.4h3s3.7,1.7,3.7,1.7l2.6-.4,1.7,1.9,2-1.8,3.1.9,1.3,2.2,2.2.3-.4,2,1.6.7,3.1-2.7,3.3,2.9,1.4.5,1.1-1.3h2c0,0,0,2.9,0,2.9l4-4.3.9,2.1,1.7.6,2.1-.5,3.3,1.5,3.9.3.5-1.5,6.3-.5,2.5-1.6,1,1.2h4s1-1.6,1-1.6l2.5,1.1,2.9,2.9,2.8.9.6.8,2.9.4.3-34-3.2-21.4v-9.7c-.1,0-12.2.1-12.2.1h-16.7s-14.7-.1-14.7-.1l-13.6-.3-19.8-.7-24.9-1.1-11.6-.6-14.6-1.1Z"/>
  <path id="path-geo-id-51" class="st1" d="M713,228.2l-.7,3.7-1.1,1.2-1,3.6v6.1s1.4,2.5,1.4,2.5l1.9-1.9v-2.1c.1,0,1.3-3.2,1.3-3.2l.4-2.6v-3.3c-.1,0,1.4-3.5,1.4-3.5h.9c0,0,1-3,1-3l-5.5,1.9-.2.6ZM620.6,253.6l-5,6-2.1,1.1-3.1,2.5.2,1.2-2,1.9v1.7c0,0-2.8,1.1-2.8,1.1l-1.5,2.5-3.3,1.9-1.6.3-2,1.5,6.3-.7,20.2-2.9,3.9-.5,12.8-1.4,8.3-1.1,11.9-2,15.1-2.7,24-4.7,1.6-.5,14.1-3-3.4-6.6-1.4.6-3.3-.5-.5,1.6-5.4-2.1-1.8-2.2,1.5-.9.9,1.8,3.7,2.3,1.6-2.8-2.4-1.9,1.6-3.8-.4-1.4-1.8-.8-.4-2,.5-1.5-.6-2.5.8-1.5-3.7-1.1-2.9-2.6-3.4.4-2-.6-1.4-1.7v-1.4c0,0-3.2,1.6-3.2,1.6l-1.7-1.9,1.2-3.7,1-.5.9-2-.2-1.3v-1.1c-.1,0-1.7-1.3-1.7-1.3l-2-.6-1.7-1.3h-1.8c0,.1-1.2-1-1.2-1l.7-1.7-1.9-1.2h-2.3c0,.1-.9,4.1-.9,4.1l-8.8-4.9.5,2.1-.8,2,.6,1.7-2,3-.2,1.4-2.4,2-.8,2.5-2.1-1.3-1.3,4.1-.6,3.3-1.2,1.8-2.6-.4-1.2-1.6-1.8-.5v3.2c0,0-2.9,6.4-2.9,6.4l-.4,2.8-2,2.7-1.4,3.8,1.3,1-1.4,1.5.6,1-2.4,2.1-1.3-.8-2,1.9-1.2.2-2.2,2.3-2.4.7-1.6,1.1-2.4-1.7-2.6,3-1.8.4-1.5-1.2-2.5-1.1-1.3-3.5Z"/>
  <path id="path-geo-id-54" class="st1" d="M608.8,238l.7,3-.6,2.5,1.5,1.1,1.1,2.5,4.2,4.7,3.5,2,1.4-.2,1.3,3.5,2.5,1.1,1.5,1.2,1.8-.4,2.6-3,2.4,1.7,1.6-1.1,2.4-.7,2.2-2.3,1.2-.2,2-1.9,1.3.8,2.4-2.1-.6-1,1.4-1.5-1.3-1,1.4-3.8,2-2.7.4-2.8,2.8-6.4v-3.2c0,0,1.9.5,1.9.5l1.2,1.6,2.6.4,1.2-1.8.6-3.3,1.3-4.1,2.1,1.3.8-2.5,2.4-2,.2-1.4,2-3-.6-1.7.8-2-.5-2.1,8.8,4.9.9-3.9-.9-1.8-2.3-2.3-2.1-.4-2.6-1.3-1.1,1.7-2.2.3-.3,2.2-1.4.2-4-.6-1.4,3.2-1.9-.3-1.5,2.4-3.4,3.7-1.6-9.9-15.1,2.6-2.9-17.6-1.9,1.6,1.3,1.6.5,3.2-1,3.4v3.6c0,0-1.1,4.5-1.1,4.5l.2,2.6-1.9,1.6-2.4,3.6-1.7,1.1-1.8-1-2.9,3.1-.9,2,.2,4.1-.8.8-3.1-1.4-2,4.8,1,3.8-1.5.5v2.6c-.1,0-3,1.3-3,1.3l-1-.2Z"/>
  <path id="path-geo-id-22" class="st1" d="M440.1,356.5l.4,19.7,2.4,2,1.8,3.7-.7,2,1.6,1.4,1.3,3.1-.3.9,2.3,4.6.4,3-1.4,4.5-1.8,3.2.6,1.8-1,1.8,1,1,.2,2.7-.7,2.5-1.9,3.1-1.1.9,1.5,2.4,1.6-.9,4.5-.8,4.9-.2,3.6.9,5.3,2.2,5.5,1,2.9-1.2-1-2.7,1.4-.3,3.8-2,.6,2.4,1.3-.8h2.4s3,5,3,5l2-.5.2,1.9,1.9-.2-1,2.8,3.8,1.2h1.8c0-.1,1.9,1.9,1.9,1.9l3.3-2.1.9-2,1.8-.5.6-1.1,2.3,1.4,1.6,3.4,2.8-2.1-1.1-1.4,1.7-2.1.4-1.8,3.5,1.2-.3,1.2,2.6.6,2.7,1.3,3,2.8,4.2-.9.7-1.7-3.3-3-4.6-.8-3.6-2.4v-1.7c0,0,3.9-2.5,3.9-2.5l1.6-3.6-1.8-.7-1.2-1.3-1.4,1v2.1c-.1,0-1.9.2-1.9.2l-2.3-1.2.2-1.9,1.6-.5,1.5-1.8,1.6-.6-2.2-2-.8-3-1.5-1.1-1.5-2.9.8-3.1.3-3.4-21.7,1.3-9.2.4v-2.3c-.1,0,1.5-3.1,1.5-3.1l-.2-4.9,1.9-2.3.7-4,2.2-1.2,1.9-2.2.5-1.6-2.1-.6v-1.2c0,0,2-1,2-1l1.9-2-1-1.8-2.1-.4v-1.7c0,0-1.1-1.7-1.1-1.7l1.4-1.3-1.7-.8.2-1.8-1.2-1.5.7-1.6-17,.7-29.3.7Z"/>
  <path id="path-geo-id-26" class="st1" d="M539.6,181l14.7-1.5,14-1.6v1.2c.1,0,19.2-3.1,19.2-3.1v-1.5s1.4-2.6,1.4-2.6l1.9-1.9.4-1.5-.3-2.9.7-1.6,1.9-.9.2-3.4,1.1-1.1-.6-1.2,1.4-1.2.9,2.2,1.8-1,.4-3.1-.3-3.2.4-1-2.2-4.5-.8-3.9-1-2-1.4-5.4-1.9-2.8-2.8-1.2-1.9,1.6-2.4.8-1.6,2.8-.6,2.3-2.6,3.2-3.4-1.4-.8-1.5.2-3,.9-1.5,2-.3,1.3-2.4v-2.4s2.6-2.6,2.6-2.6l-.4-4.9.3-2.3-1-3.1-1.9-1.1-.3-1.4,1.5-2.3-1.1-2.5-6.6-2.4-1-.8h-2.8c0,0-1.7-2.3-1.7-2.3l-2.9.2-4.2-1.9-2.8,1.5-2,2.9,1.4,2.4v1.4c0,0-2.1.2-2.1.2l-2.1,2,.5,3v3.5s-1.4,3.7-1.4,3.7l-1.6-.4.2-5.8-2.1.5-.7,2.1-1.7-.2-1.7,1.4v3.2s-1.9.9-1.9.9l.3,2.1v4.8c0,0-1.7,4.2-1.7,4.2l-1.2,1.7,1.5,3.8-1,4.7,2.1,4.7,2.9,5.2.6,1.8.8,5.3v4.3c-.1,0-1.2,4.7-1.2,4.7l-1.6,2.8-1.5,4.6-2.6,2.8ZM482.9,92.4l2.8,1.1,1.5,3.1,14,2.9,4.3,2,2.3.4,1.4-.7,1.3.7h2.3c0,0,2.1.8,2.1.8l.2,2.5,2.9.3,1.7,2.8-.3,2.7-.8,2,3.2.2-.9,3.2,2.1,1.4.5-2,2.5-4.8.7-2.7,2.2-3.1,1.7.5,1.4-.8.6-2.8,3.4-.2-2.1,4,.9.7,1.3-2.7,2.1-1,.4-2.3,1.6-1.3,3.7.2,1.4-1.1,2.2-.3,1.5-2.2,2.6-.3,4.5,1.1,2.7,2.3,1.8-3.8,5.1,1.3,2.3-.9h2.6s-3.5-3.7-3.5-3.7l-.6-4.6.3-1.7-4.1.6-1.4,1.7-1.3-1.1-1.8.8h-3.3c0-.1-.6-.7-.6-.7l.2-5-3.4.7-2.8,1.7-5.3.4-3.4.7-5.1,3.9-1,1.7-1.7-1.1-.7.9-2.3-1.5-1.8.8-2.6.3-2.8-2.7-2.6-3.4-3.1-1.1h-4.6s-2.3,2.8-2.3,2.8l-.7-.6.3-2.8.9-1,1.4-3.3,2.2-2.3,3-1.9v-1.7s-4.9.7-4.9.7l-3.1,2-1.8,2.5-3.9,3.1-1.1,2.1-2,.4-1,1.5-2.4,1.5-3.4.4-2.3.9-2.2,2.5-5.1,2.4Z"/>
  <path id="path-geo-id-25" class="st1" d="M726.1,130.1l-.3,13.2.5.6,6-1.3,17.4-4.1v.3c0,0,5.8-1.7,5.8-1.7l.6,2.4,1.3,1.9,1.8.9.6.6h.9s1,3,1,3l2.3-1.7,2.3-3.7,1.4.6v2.3c0,0,2.4-1,2.4-1l.5-1.2,6.6-3.3-1.8-1.7-2.4,1.6-2.2.7-2.7-.8-.6-2.1-2.4-.6.3-2.1-2.5-2.6h-4.1s.2-2.1.2-2.1l1.5-2.2-.6-.9,2.9-1.8-2.4-1.2-1.5-3.2-1.6.2-2.4,1.9-1.6,2.9-16,3.6-11.1,2.4Z"/>
  <path id="path-geo-id-16" class="st1" d="M129.9,74.7l1,3.6,2.3,1.4,1,3.4-4,4.9-1.5,3.2-2,1.9-.2,1.6-2,2.7-1.6.4-4.1,6,1.8,3.7,1.9,1.8-1.4,1.2.3,1.3-2.1,3.7-7.7,34.1,9.1,2.1,18.6,3.9,13.8,2.8,3.9.8,22.2,3.8,16,2.6,2.2-13.8,5.3-33.4h0c0,0-1-.7-1-.7l-2.1-4.9-2.2.3-.9,2.8-4.6-1.1-3.3.3-2.3-1.3-1.8,2.1-4.3-1.9-1.9,1.2-2.1-1v-4.4c0,0-2-3.2-2-3.2l-2.7-1.3.7-3.7-1.4-1.7-1.1-2.8-.6-2.9.3-3.8-2.5-1.7-2,1.7-3.1,1.3-2.4-2.9,1.1-1.5-.5-2.1,1-1.2,1.7-.4-.7-2.3v-2.6c-.1,0,1-.7,1-.7l1.1-4,.9-.9,1.4-3.7-3.9-.6-.3-2-3-2.3v-1.4c0,0-1.1-1.9-1.1-1.9l-.8-2.5-1.1-1.2-.6-2.2-2.5-1.4-1.5-3.4-.4-2,1-.6v-1.9c0,0-3.1-6.2-3.1-6.2l4.1-19.1-12.3-2.7-3.8,16.2-7.1,31.7.4,5.3-.7,1v2.1Z"/>
  <path id="path-geo-id-12" class="st1" d="M660,500l2.3-.3,2.9-1.7,3.7-1.1-1.7-2.1-1.4-.4-5,3.8-.8,1.9ZM589.6,385.3l-14.6,1.8-10.3,1.1-17.7,1.6-.4,2.6,1.9,2.2,2.2,1.1-.4,2.9.5,2.3-1.3,2.5,3.3-1.1,2.6-.4,6.8-1.9,6.2-.3,4.7.9,2.5.8,6.2,3.2,1.6,1.3,1.8.4,2,2.5v2.3s7.1-1.8,7.1-1.8l5.3-4,3.2-.2-.2-2.7,1.5-1.1,3.5-.8,1.8,1.1,4.3,1.6,2.8,3.4,2.5,1.2.5,2.3,3.2,1.6,1.5,2.3,2.8,1.9h2.8s1.6,2.8,1.6,2.8l1.5,1.6-.6,1.7,2.2,5.2-.9,6.1v4.3s-.7,2.4-.7,2.4l2.4,3.1,1.7-.2.5-2.5,2.8-1.7.5,1.1-1.7,2.8-1.7,3.7-1.1.6,3.9,4.7,1.8,3,4.2,5.1,1.7-.8-1-2.4,1-1,1.5,2.9-.5,4.8,2,.4,2.8,2.3.9,1.5,1.1,3.7,2.6,4.2,1.4-1,3.6,1.5,2.4,1.5.5,1.3,2.2,2.4,1.2,2.3-.5,2.3,1.9,1.7,3.1-.9.5-.8h2.6c0-.1,2.3-1.5,2.3-1.5l2-.4,1.5,1.7,1.8-4.8-1.9-2.2,1-5.1,1.7-1-.7-6.2-.4-9.8-.5-3.7-1.8-4-4-6.6-3.2-6.2-4.3-6.5-1.2-3.4v-2.2s.9-1.2.9-1.2l-1.2-2.2-2.8-2.9-5.5-6.7-4.5-7.2-2.2-4-3.5-8.8-2-6.4-.4-2.1h-4.6s-4-1-4-1l-1.2,1.7.9,2.9v4.5c0,0-1.9.4-1.9.4l-.8-1.2-.5-2.7-43.9,3-.9-.7-.7-2.5-1.3-2.1Z"/>
  <path id="path-geo-id-31" class="st1" d="M295.7,158.5l-3.3,38.6,17.1,1.3,11.7.8-1.2,19.3,9.4.6,23.4,1.2,16.2.5,12.8.3,22.5.3h14.6s-1.7-1.2-1.7-1.2l.3-1.3-1.2-2.2-1.9-1.4-2.3-5.3-.3-1.4-1.4-1.4,1.1-3-.7-4-.9-2.1v-5.2c-.1,0-2.4-1.4-2.4-1.4l-.4-3.1.7-2.1-1.6-3.4-1.2-1.3-1.1-2.4.3-1.2-1.2-2.1.4-2.1-.9-.9h-.8c0,.1-2.9-2.3-2.9-2.3l.3-.9-4.1-2.1-2.1-.2-2.4-1.9-5.4.4-2.2-.5-1.5,1.9-7.2-3.6-.4-1-16.9-.5-13.1-.6-15.2-.8-15.1-1.1-17.7-1.4Z"/>
  <path id="path-geo-id-53" class="st1" d="M140.9,18.3l-22.5-5.3-14.5-3.6-21.7-5.8-12.4-3.6-1,2,.5,1.8,2,1.1-.3,2.1.7,1.5-3.6,1.2-.3,1.5,2.7,2.4-.4,4.4,1.2,1.9-1.5,1-1.9,2.3v1.5c-.1,0-1.5,2.6-1.5,2.6v4.5s-3,.6-3,.6l-2.8,2.7-1.2-1.3,1.3-1h1.9c0-.1,2.5-4.5,2.5-4.5l1.3-4.3.4-3.2-2.6,1.5-1.5,2.1-2.3.3,1.7-2.7,3.2-.8.4-4.5-.9-1-2.7.2-1.9-2-1.2.6-2.3-.7-3.3-2-2-.4-2.2-1.1-1.9-2.3-1.6-.9-1.8-2.2-1.4.3-1.8,2.7-.4,5.1,1.7,3.8v3.2c-.1,0-.7,3.4-.7,3.4l.6,2.5-.4,5.2,3.4,2.1-3.5.9-.8,2.2,1,1.1.2,3.9-1.5.4-.8,3,1,1.7,2.6-.5,1.7,1.4,1.1,1.9,1.7,1.3h2.3c0-.1,2.2,2.5,2.2,2.5l.5,2.6-1,5.8.9,1.1,5.2,2.9h2.1c0-.1,4.4-1.3,4.4-1.3l3.7.6,5.4,3.1,3.1.4,3.2-.6,1.5,1.3,4,.5,3.7-1,4,.4.8-.8,4.9.6,1.7.6,2.1-.8,27.1,6.5v-2.1c-.1,0,.6-1,.6-1l-.4-5.3,7.1-31.7,3.8-16.2Z"/>
  <path id="path-geo-id-35" class="st1" d="M210.1,266.1l-11.2,81-3.9,27.6,13.7,1.8,1.1-8.6,12.7,1.6,14.5,1.7-1.6-1.8.6-2.5,18.5,2,15.3,1.5,23.8,2,1.4-19.2,1.8-19.3,3.6-48.3h.6s.7-9.6.7-9.6l-20.4-1.5-28.3-2.8-31-3.8-12-1.6Z"/>
  <path id="path-geo-id-46" class="st1" d="M298.9,120.1l-3.2,38.4,17.7,1.4,15.1,1.1,15.2.8,13.1.6,16.9.5.4,1,7.2,3.6,1.5-1.9,2.2.5,5.4-.4,2.4,1.9,2.1.2,4.1,2.1-.3.9,2.9,2.4h.8c0-.1-1-2.9-1-2.9l-1.7-2.1,1.6-3,.2-2.6,1-1.7-.6-2.1-1.2-.3.7-3-1-2h2s.2-34.7.2-34.7l-.5-1.1-2.6-1-2.4-3.8,2.8-2.7,1-1.5.2-2.1h-10.6c0-.1-14.3-.4-14.3-.4l-14.5-.5-25.9-1.3-20.1-1.3-15.1-1.2-1.5,18.2h-.2Z"/>
  <path id="path-geo-id-48" class="st1" d="M301.1,285.4h-.6s-3.6,48.2-3.6,48.2l-1.8,19.3-1.4,19.2-23.8-2-15.3-1.5-18.5-2-.6,2.5,1.6,1.8,2.3,1.2,2.1,5.1,2.2,1.9,1.9.8,2.6,4.1,2.6,1.8.6,1.9,2.2,1.9.2,1,2.8,1.1,1.5,1.2,3.3,3.8.3,3.5.8.6,1.7,3.7-.6,2.4.3,2.7,1.8,3.4.4,2,2.8,2.6,2.1.9.5,1.7,2.4,1.8,3.9,1.2,1,1.7,2.8.7,2.1,2.4,4.3,1.6,5.8-7,.7-3.1,1.3-1.4,1-2.3,3.5-1,1.3.5,2-2,3.7,2,1.6-.4,3,.4,2.6,1.1,1.4-.8,1.9,1,2.4,2.3-.3,1,2.6,2.2,1.5.4.8,1.8,3.4,2.4,1.9,2.9.3,3,1.6,2.3.7,3.2.9.4,1.7,4.1.6,2.8,1.3,1.7,2.2,1.1,1.5,3,1.6,2,.2,1.8,2.6,2.7,2,.5,1.5,1.5.5,1.7-.4,3.9,1.1,1.9-.4,2.9,2.9,3.5,1,2.3.6,3.6,1.3,1.2v1.5c.1,0,4.9.7,4.9.7l2.6,2.6,1.2-.4,2.2.7,3.7,3,3.6.7,2.7-.4,4.2,1.2,2.2,2.3,2.6.9v-1.2c.1,0,2.6-1,2.6-1l1.3-1.5-2-.9-.8-2.6.4-1.4-2.1-4.6-.7-3,.9-10.7-1.9.5-1.3-1.1,1.9-1.6,1.4,1,1.7-4.7,1.2-2.3-1.5-.6-.7-2.2,2.3-.7,1,1,2.5-3.9h-1.6s-1.4-1-1.4-1l1.3-1.2,3.7.4,2.5-2.3v-3s1.3,0,1.3,0l.4,1.7,4-2,.2,1.5-2.4.8-2,1.9-1.5.2-2.4,1.9-.6,2.5,3.6-3.5,5.3-3.3,2.9-2.8,8.5-4.3,5.2-3.1,1.4-.5,4.4-3.9-.7-1,4.5-3.6v-2.5c0,0-2-2-2-2v-1.8s1.2-1.3,1.2-1.3l1.2.5.9-1.7h1.9c0,0,0,2.3,0,2.3l-1,2.2,3.6-1,.9,1.2,6.6-3,4.3-.7-1.5-2.4,1.1-.9,1.9-3.1.7-2.5-.2-2.7-1-1,1-1.8-.6-1.8,1.8-3.2,1.4-4.5-.4-3-2.3-4.6.3-.9-1.3-3.1-1.6-1.4.7-2-1.8-3.7-2.4-2-.4-19.7-.2-10.3-1.9-.7-3.6.9-1.6-1.7-2.9-.4-.6-.8-2.8-.9-2.9-2.9-2.5-1.1-1,1.6h-4s-1-1.2-1-1.2l-2.5,1.6-6.3.5-.5,1.5-3.9-.3-3.3-1.5-2.1.5-1.7-.6-.9-2.1-4,4.3v-3c0,0-2.1,0-2.1,0l-1.1,1.3-1.4-.5-3.3-2.9-3.1,2.7-1.6-.7.4-2-2.2-.3-1.3-2.2-3.1-.9-2,1.8-1.7-1.9-2.6.4-3.7-1.7h-3s-.2-2.4-.2-2.4l-2.6-2.4-.3,1.5-2.9-.8-1.8.7-2.9-3.4-1.8-.3,1.6-37.6-8-.4-20-1.1-18-1.2Z"/>
  <path id="path-geo-id-06" class="st1" d="M12.5,123.5l-1.8,3.9,1,1.1v3.9s-.3,2.1-.3,2.1l-3.4,6.4.4,1.1-1.5,2.6-3.8,4.1-2.1,2.9-.4,3.6,1.7,3.2.9.8,2.1,6.1-.3,5.6-2,3.5.3,6.1-1.1,1.6.5,2.4,2.1,3.6.8,2.8,2.4,3.2,1.2,4.4-.8,4.2,1.5,1.2,1.2,2.4,2.6,2.2,1.8-5.4,1.5-.2,1.1,1.1-.2,1.6-2.2.6,1,2.5-.8,1.3,1.7,2.3v3.9c0,0-3.1-2.8-3.1-2.8l.5-4.3h-1.7c0,.1-1.4,5-1.4,5l.7.8v2.7c.1,0-.8,3-.8,3l1.8,3.9,1.9,2.1h2.2s.8,1.2.8,1.2l.4,2.7-1.3,2.6h-1.8s-.9,2.6-.9,2.6l.5,5.1,1.4,1.3,1.2,3.8.8.6v2.4c0,0,1.5,2.5,1.5,2.5l.5,2.5,1.3.9,1.6,3.9,1.7,1.6-1.2,2.8,1.3,1.8,1.3.5.5,2.3-1.4,2.8.6,1.3-.5,2.6-1.3,2.2,1.8,1.6.2,1.6,3,.4,4.2,1.2,1.7,1.5,4.9,1.1,3.7,3.9.4,2.5,5.6,4.3h3.8c0,.1,1.4,2.2,1.4,2.2l.4,2.5-.9,1,1.9,1.8,2.1-.6,3,3.8,1.9,1.8,3.4,4.9,1.9,4.6v4.9c.1,0-.7,3.3-.7,3.3l1.2.8v2.8c.1,0,38.9,4.6,38.9,4.6h3.2c0-.1,1.2-1.6,1.2-1.6v-3.4c0,0-2.5-.9-2.5-.9l-.4-1.2,1.1-3.2-.2-2.6,3.7-2.3,1-2.7.3-4.5,1.8-1.5.7-1.5,2.8-.8,2.3-2.1-2.6-3.4-.9-3v-2.3c-.1,0-2-3.4-2-3.4l.5-2.6-13.6-20.3-25-37.5-24-35.9,1-4.3,3.7-13.7,9.9-38.3-4.5-1.1-14-3.8-14.1-4.2-13.3-3.7-11.8-3.5Z"/>
  <path id="path-geo-id-01" class="st1" d="M530.8,313.6l1.8,1.9-.6,22.8-.4,24.7-.3,10.8,3.6,29.2.9-.8,2.6.6,1.3-.4v-3.8c0,0,1.2-2.2,1.2-2.2l1.4.5.7,4.6,2.7,2,1.7.7,2.2-.8,1.3-2.5-.5-2.3.4-2.9-2.2-1.1-1.9-2.2.4-2.6,17.7-1.6,10.3-1.1,14.6-1.8-.8-2-1.2-1-.4-1.9.6-5.4-1.7-2.8-.6-3.1,1-3.1-.4-2.3,1.9-1.9-1.4-1.8.2-2.4-2.6-3.6-1.8-4.2-11.2-39.9-19.6,1.9-21,1.6v.2Z"/>
  <path id="path-geo-id-13" class="st1" d="M571.3,309.9l11.2,39.9,1.8,4.2,2.6,3.6-.2,2.4,1.4,1.8-1.9,1.9.4,2.3-1,3.1.6,3.1,1.7,2.8-.6,5.4.4,1.9,1.2,1,.8,2,1.3,2.1.7,2.5.9.7,43.9-3,.5,2.7.8,1.2,2-.4v-4.5c0,0-.9-2.9-.9-2.9l1.2-1.7,4,1h4.6s0-3.8,0-3.8l-.7-4.1,1.8-3.1-.7-1.9,1.5-3.1v-4.1c.1,0,2.8-4,2.8-4l.3-2.5-4.1-1.3-.9-2,.5-.9-1.8-3.2-3.8-2.3-.8-4.1-1.6-1.8v-1.3s-2.3-1.4-2.3-1.4l-1.4-.2-3.8-3.5-.7-2.6-2.2-1.6-2.6-.9-1.3-2.3-1.7-1.2-3.6-1.7-.9-1.5-2.2-2-.8-2.2-3-3.9-1.5.5-3.1-2.2-2.7-1.2v-2s2.4-3,2.4-3l.3-1.5-7.9,1.3-10.9,1.4-20,2.4Z"/>
  <path id="path-geo-id-42" class="st1" d="M628.3,165.2l4.2,25.6,2.9,17.6,15.1-2.6,13.6-2.5,22.4-4.3,17.3-3.7,2-2.7h2.9c0,0,.1,0,.1,0l3.7-3,.5-1.4,3.1-3.7.3-1.8-5-2.9-.7-2.3-1.9-.2-.5-3.9,1.3-2.2-1.6-2,1.3-1.2,1.4-3.1.2-2,1.7-2-1.2-1h-1.9c0,.1-1.6-.9-1.6-.9l-1.3-1.9-.7-2.5-1.2-1.5h-2.2c0,0-1.9-2.2-1.9-2.2l-13.7,3-20.8,4.2-14.6,2.8-12.4,2.2-.9-5.2-7.2,5.8-2.5,1.6Z"/>
  <path id="path-geo-id-29" class="st1" d="M412,210.1l2.3,5.3,1.9,1.4,1.2,2.2-.3,1.3,1.7,1.1,1.5,1.8,1.8.9,1.8-.8,1.1,1.3-1.2,2.7-.9.5-1.1,2.6,2.7,2.9,1.5,3.4,2,.5,1.2,1.3.2,26.1.2,15v9.7c.1,0,23.1-.5,23.1-.5l26.4-1,19.2-1,1.6,3.7-3.3,3.9-1.2,2.4,10-.7,2-2.6-.5-3.5,1.2-.7-.3-3.1h.8s1-.1,1-.1l.5-2.3,2.3.7.9-2-.7-.9,1-3.4-.4-1.8h-2.4s-3.8-5.5-3.8-5.5l1.3-2.3-1.6-2.6v-2.9c-.1,0-1.2-.5-1.2-.5l-4.2-3.5-.8.7-3.7-3.5-1.7-.9-1.8-1.9v-3.2c-.1,0,2-4.4,2-4.4l-.4-2.2,1.3-2.8-2.1-1.2-3-.8-1.3,1.9-1.8-.9-1.3-6.3-5.1-4-.7-1.3-4.2-3.6-1-2v-1.5c0,0-1.1-2.3-1.1-2.3l-.4-3.9,1.1-2.8-1.6-.6-3.2-3.8-5.3.5-16.9,1-17.9.6h-18.6Z"/>
  <path id="path-geo-id-08" class="st1" d="M220.6,189.1l-5,36-2.4,16.3v2.2s-3.2,22.4-3.2,22.4l12,1.6,31,3.8,28.3,2.8,20.4,1.5,14.6,1.1.9-13.3,2.7-45,1.2-19.3-11.7-.8-17.1-1.3-11.6-1-12.5-1.2-36.3-4.3-11.4-1.5Z"/>
  <path id="path-geo-id-49" class="st1" d="M153.1,158.5l-16.3,83.8-2.1,11.3,16.3,3,16.6,2.9,21,3.4,21.5,3.1,3.1-22.4v-2.2s2.4-16.3,2.4-16.3l5-36-20.8-2.9-7.8-1.3,3.1-19.2-16-2.6-22.2-3.8-3.9-.8Z"/>
  <path id="path-geo-id-47" class="st1" d="M505.5,295.9l1.3,1.4-1.6.8-.6,2.6-2.1.6.8,2.3-3.2,3.6.9,1.1-1.2,2.4,1.6,2.4-1.7.5-.5,1.8-1.5.7,18-1.2,15-1.2v-.2c0,0,20.9-1.6,20.9-1.6l19.6-1.9,20-2.4v-4.6c0,0,2.7-.9,2.7-.9l1.2-1.1-.2-2.1,1.8-2.3,1.6-1.1,4.2-.6,2.6-2.1.9-1.5,2.3-1.5h1.4c0,.1,1-1.3,1-1.3l-.2-1.6,3.9-3.3.6,1.8,2.2-1.1.6-1.6,1.7-1.3,2.1-.6,1.8.3,1.4-3.8,2.8-3.7v-2.3c0,0-4,.5-4,.5l-20.2,2.9-6.3.7-.2.4-13,1.4-10,.6-4.4.7-5.3.4-7.7.3-23.2,2.5-3.4-.6.6,3.5-16.3,1.1-4.6.4h-1c0,.1-.8.1-.8.1l.3,3.1-1.2.7.5,3.5-2,2.6Z"/>
  <path id="path-geo-id-56" class="st1" d="M298.9,120.1l-25.2-2.4h-.2c0,.1-16.2-1.8-16.2-1.8l-18.8-2.3-7.9-1.2-21.6-2.9-4.7-.9-1.6,10h0c0,0-5.3,33.5-5.3,33.5l-2.2,13.8-3.1,19.2,7.8,1.3,20.8,2.9,11.4,1.5,36.3,4.3,12.5,1.2,11.6,1,3.3-38.6,3.2-38.4Z"/>
  <path id="path-geo-id-36" class="st1" d="M638,157.8l.9,5.2,12.4-2.2,14.6-2.8,20.8-4.2,13.7-3,1.9,2.1h2.2c0,0,1.2,1.6,1.2,1.6l.7,2.5,1.3,1.9,1.6,1h1.9c0-.1,1.2.9,1.2.9l6.3,2.2,6.4,2v2.1c.1,0-.4,3.7-.4,3.7v1.7c.1,0,1.9,1.2,1.9,1.2l2.1-1.5,3.2-.7,2.9-1.7,1.7-.4,9.4-6.6,7.3-6h-1.2c0-.1-1.5,1.9-1.5,1.9l-1.2-.9-1.3.6-2.2-.5-2.8,3-5.7,1.8-2.3,1.7h-3.8c0,.1-4.2,3.1-4.2,3.1l1.6-3.1-1.5-1.9,2.9-2.9-1.3-1.3-2.5-14.4-.5-.6.3-13.2-.6-1.6-2.7-13.1-1.2-1.7-1.7.2.4-2.8-2.4-4.8v-2.9s.7-1.9.7-1.9l-.7-1.8v-2.1s-1.9-2.3-1.9-2.3v-3.7c-.1,0-.9-.6-.9-.6l-.2-3.2-10.6,2.9-7.2,1.5h-2c0,.1-1.8,1.2-1.8,1.2l-3.9,3.8-4.8,7.4-1.4,3.2-3,2.4-1.7,2-.4,1.9,1.8,1.8,2.1.8-1,2.5,1.4,4.5-1,1.4-1.7.2-2.6,2.7-.6,1.4-3.2,2.2-2.8.2-5.7,2-2.9-1.4-4.8.3-5.3,1-4.8,2.1-2.6,1.6,1.5,5,1.2.4,1.4,2,.2,1.3-2.2,2-.9,2.9-2.2,1.4-1.6,2.1-3.8,3.4Z"/>
  <path id="path-geo-id-20" class="st1" d="M320,218.6l-2.7,45-.9,13.3,11.6.6,24.9,1.1,19.8.7,13.6.3,14.7.2h16.7s12.1-.1,12.1-.1l-.2-15-.2-26.1-1.2-1.3-2-.5-1.5-3.4-2.7-2.9,1.1-2.6.9-.5,1.2-2.7-1.1-1.3-1.8.8-1.8-.9-1.5-1.8h-14.6s-22.5-.3-22.5-.3l-12.8-.3-16.2-.5-23.4-1.2-9.4-.6Z"/>
  <path id="path-geo-id-02" class="st1" d="M151.6,482.7h1.9c0,0,1.1,2,1.1,2l.6,3.5,2.2,2.4,1.4-1.1,2-.5-1-3.2-1.5-1-1.3-2.2-2.3-1.5-1.4-1.6-1.9,3.2ZM148,477.1l1.7,2.4,5-1.4.9-.9-2.3-2.1-3.6-.4-1.7,2.3ZM142.4,474.3l1.4.9.4,2.5,2.7,3.3.4-3.1-1.6-3.5-2.7-1.7-.7,1.6ZM138.2,470.2l1.8,2.8,1.7,1.1.7-2.1,3,.6-1.2-3.7-3.6-1.1-2.4,2.3ZM69.3,477.5l.8,2.6,2,2,1.8-1.7,2.5-.7v-1s2.4-1,2.4-1v-3.7c0,0-2.4-.4-2.4-.4l-1.7,1.2-.9-.9-3.7,2.4-.7,1.1ZM25.9,489.6l1.7,1.6,1.8-1,3.4.2-.4-2.4-1.4-.5-3,.6-2,1.5ZM27.8,448.2l.7,1.9,2.9,2.1h2.1c0,0,.4-2.8.4-2.8l-1.5-1.2-2.9.4-1.8-.5ZM37.5,410.2l1.5,2.3,2.7,1.8-1.6,1.2.6,3.7,3.3,2,2-.3,4.5,1.5,5.5-1.7.8,2.2-1.7,1.5.6,1.3v2.7s-1.6,2.1-1.6,2.1l-3.9-.4-2.7,2.2-2.8-2.2-2.9,1.6-.6,2.5-1.6.5-4.1,3.8-.2,3.6.5,1.8,1.5.6.4,1.9-1.9,1.5,1.6,2.6,1.6,4,1.8.4,3.4-.5.9-1.2,1.3,5.2-1.6,1.4.5,2.3-.8,2.2,2.3-.4,3.1-1.1,1.9,2.1,2,.8.7,2.3,1.2-.4.4-2.5,2.2,2.1,3-1.1.8,1-1.6,1.2-1.8,5.5v1.1c0,0-2.7,1.6-2.7,1.6l-1.9,2.2-4.8,2-2.4,1.5-1.1,2.8-1.4.7-1.5-2.2-2.2.2-2.1,1-4.1,3.3.5,1.4,3.5-.2,1.9-2,.7.5h4c0,0,3.3-2.2,3.3-2.2l.7.5,5-.6,1.1-1.7-1-.9,2.5-1.5,3.2-.6,3.5-2.4,3.2-3.9,5.8-2.4,1.3-2.8h1.1c0,0,1.1-1.8,1.1-1.8l-1.3-1.5-1.8-.8,1.9-2.4,2.7-1.1,1.9-2.5,1.3-3.2,2.9-3.2,3.3-1.9.5,1.9-3.6,2.1.4,1.3-.6,2.1-1.9,3.3,1.5,1.7-1.6.8.4,1.9,2.6-.8,4.7-2.8,1.4-2.1,1.9.5,2.5-.7-.5-1.7,1.3-1.3-.6-2.2,1.6-1.6,3.1.2,1.7,2.1,3.7,2.2,3.2.8,1.5,1.2,4.8-1.1,3.4.6,2.7,1.3h2.1c0,.1,9.3,4.7,9.3,4.7l1.3,1.7,4.5,1.7,3.3-1.7,2.3.4-.8-2.2.6-.7,2,3h1.9c0,0,3.1,3.9,3.1,3.9l.6,2.6,2.3.4,2.9,2.6.5,1.3-1.1,2.1,3.1,1.7-.4.9,2.1,2.3h3.3c0,0,1.3,2.6,1.3,2.6l2.1-1.5.8-2.9-1.6-3.1-.5-2.5-4.3-.9-4.8-2.2v-1.3s-2.7-2.7-2.7-2.7l-4.6-5.8-2.1-1.7-1.7-.6-1.2-1.7-1.9-.7-.6-1.9-1.9-1.3-2.3,1.6-.8,3.6-2.8,2.3-1-2.3-6.5-5.2.2-1.9-2.1.4-.9,1.2-3.7-.5-7.2-66.8-1.2-.3-4.7-2.8-3.9,1.6-2.4-1.3-4.4-.2-.9-.9-3.4-1.4-4.1.8-1.3-1.2-1.6-.3.6-1.8-2.4-.8-3.2.3-.9-2.4-1.2.5-2.1-1.9-3.9,2.8-3.8-.4-3.9,2.6-1.9-.4-3.6,3.1-1.3,3.2-3.1,2.1-3.5-.3-1.6-.6-.7,2.2-1.3,1.3,2.6,3,2.3,3.5.5,4.1,2.5,2.1,1.9,5.3-1.1,1.2-5.4-1.5.8-2.9-1.7-1.1-3.7.6-8.4,2.9Z"/>
  <path id="path-geo-id-32" class="st1" d="M70.3,139.8l-9.9,38.3-3.7,13.7-1,4.3,24,35.9,25,37.5,13.6,20.3,1.4-2.4.3-3.6-.6-3.4,1.2-7.9v-3.6c-.1,0,2-.7,2-.7l3.9.8,1.5,2.8,1.6-.2,2-2.7,2.9-15.4,2.1-11.3,16.3-83.8-13.8-2.8-18.6-3.9-9.1-2.1-23.2-5.3-18-4.6Z"/>
  <path id="path-geo-id-17" class="st1" d="M475.4,212.5l-1.1,2.8.4,3.9,1.2,2.3v1.5c0,0,.9,2,.9,2l4.2,3.6.7,1.3,5.1,4,1.3,6.3,1.8.9,1.3-1.9,3,.8,2.1,1.2-1.3,2.8.4,2.2-2.1,4.4v3.2c.1,0,1.9,1.9,1.9,1.9l1.7.9,3.7,3.5.8-.7,4.2,3.5,1.1.5v2.9c.1,0,1.7,2.6,1.7,2.6l-1.3,2.3,3.8,5.4h2.4s-.8-1-.8-1l2.1-3.5,1.7-.4,6.2,2.6,1.3-1.8-1.6-2.4.4-2,2.8-1.5,3-.6-1.5-3.6,1.7-2.8-.5-4.5,1.6-2.8-.8-2.1,1.6-.2,2.8-6.2,1.2-2,.3-2-1.5-3.8v-1.4c0,0-1.5-1.4-1.5-1.4l1.1-1.7.4-2.6-4-45.6-1.4-2.5-1.4-4.4-1.9-2.5-.6-1.7v-3.7c.1,0-13.7,1.1-13.7,1.1l-26.2,1.4,2.5,2.3,1.4,3,3.4,1.9.5,2.2-.4,3.9-1.7,1.4-.2,2.9-1.6,1.3-2.7,1.3-2.9.3-2.7,1-.8,3.3,2.6,2.7v3.3c0,0-1.9,2.3-1.9,2.3l-.3,2.8-3.2,1.3-.2,4.2-.6.3Z"/>
  <path id="path-geo-id-50" class="st1" d="M714.7,87.8l.2,3.2.8.6v3.7c.1,0,2,2.3,2,2.3v2.1s.8,1.8.8,1.8l-.7,1.9v2.9s2.4,4.8,2.4,4.8l-.4,2.8,1.7-.2,1.2,1.7,2.7,13.1.6,1.6,11.1-2.4-1.9-2,.8-3.3-.8-2.5-.9-8.4.4-2.6,1.1-2.3v-3.8s.6-2,.6-2l-1.3-3.3.2-1,2.8-1.5,2.2-3.1.4-2.1-2-2.6.9-3.5-.6-1.9-10.6,2.9-7.1,1.5-6.6,1.7Z"/>
  <path id="path-geo-id-30" class="st1" d="M153.3,21l-4.1,19.1,3.1,6.2v1.9c0,0-1,.6-1,.6l.4,2,1.5,3.4,2.5,1.4.6,2.2,1.1,1.2.8,2.5,1.2,1.9v1.4c0,0,2.9,2.3,2.9,2.3l.3,2,3.9.6-1.4,3.7-.9.9-1.1,4-1.2.7v2.6c.1,0,.8,2.3.8,2.3l-1.7.4-1,1.2.5,2.1-1.1,1.5,2.4,2.9,3.1-1.3,2-1.7,2.5,1.7-.3,3.8.6,2.9,1.1,2.8,1.4,1.7-.7,3.7,2.7,1.3,1.9,3.2v4.4c0,0,2.2,1,2.2,1l1.9-1.2,4.3,1.9,1.8-2.1,2.3,1.3,3.3-.3,4.6,1.1.9-2.8,2.2-.3,2.1,4.9,1,.6,1.6-10,4.7.9,21.6,2.9,7.9,1.2,18.8,2.3,16.2,1.9h.2c0-.1,25.2,2.3,25.2,2.3h.2s1.5-18.2,1.5-18.2l3.2-36.6,1.7-21.6-10.6-.9-15-1.5-17.7-2-19.8-2.6-14.9-2.1-16.9-2.6-27.7-4.9-19.1-3.8-10.6-2.2Z"/>
  <path id="path-geo-id-19" class="st1" d="M402.3,153.6h-2s1,2,1,2l-.7,3,1.2.3.6,2.1-1,1.7-.2,2.6-1.6,3,1.7,2.1,1,2.7.9.9-.4,2.1,1.2,2.1-.3,1.2,1.1,2.4,1.2,1.3,1.6,3.4-.7,2.1.4,3.1,2.3,1.4v5.2c.1,0,1,2.1,1,2.1l.7,4-1.1,3,1.4,1.4.3,1.4h18.6c0,.1,17.9-.5,17.9-.5l16.9-1,5.3-.5,3.2,3.8,1.6.6.6-.3.2-4.2,3.2-1.3.3-2.8,1.8-2.3v-3.3c0,0-2.5-2.7-2.5-2.7l.8-3.3,2.7-1,2.9-.3,2.7-1.3,1.6-1.3.2-2.9,1.7-1.4.4-3.9-.5-2.2-3.4-1.9-1.4-3-2.5-2.3-1.2-2.5-3.3-.7-1.4-.9-1.5-3.3-.7-4.2,1.6-2.5-2.1-1.7-.4-2.9-21.9.9-16.5.5-21.5.3h-13.1Z"/>
  <path id="path-geo-id-45" class="st1" d="M610.1,304.8l-.3,1.5-2.5,3v2s2.7,1.2,2.7,1.2l3.1,2.2,1.5-.5,3,3.9.8,2.2,2.2,2,.9,1.5,3.6,1.7,1.7,1.2,1.3,2.3,2.6.9,2.2,1.6.7,2.6,3.8,3.5,1.4.2,2.3,1.4v1.3s1.6,1.8,1.6,1.8l.8,4.1,3.8,2.3,1.8,3.2-.5.9.9,2,4.1,1.3.4-1.7,1.5-.7,1-1.6,3.2-2.7-.9-2.6,2.4-.7,3-2.7,1.9-.6,1.6-1.8v-1.3c0,0,2.2-1.5,2.2-1.5l2-2.3-.2-2.1,3.3-.5.2-1.6,2-2.8-.3-2.2.8-3.3,1.8-3.4,3-3.7,2.5-1.5-20.9-15-17.4,2.6v-2.3c-.1,0-3-2.9-3-2.9l-1.8-.5-17.7,1.8-3,.7-.4-.6-4.3,2.7-6.3,3Z"/>
  <path id="path-geo-id-33" class="st1" d="M739,81.6l.6,1.9-.9,3.5,2,2.6-.4,2.1-2.2,3.1-2.8,1.5-.2,1,1.3,3.3-.6,2v3.8s-1.1,2.3-1.1,2.3l-.4,2.6.9,8.4.8,2.5-.8,3.3,1.9,2,16-3.6,1.6-2.9,2.4-1.9,1.6-.2.6-3.9-2-.8-.4-2.1-2.6-1.4-7.4-24.2-3.9-11.9-.4,1.3-2.3-.6-1,1.6-.5,4.5Z"/>
  <path id="path-geo-id-04" class="st1" d="M108.4,333l-1.8,1.6-.5,2.3,25,15,31,17.8,17.4,2.7,15.5,2.2,3.9-27.6,11.2-81-21.5-3.1-21-3.4-16.6-2.9-16.3-3-2.9,15.4-2,2.7-1.6.2-1.5-2.8-3.9-.8-2.1.7v3.6c.1,0-1.1,7.9-1.1,7.9l.6,3.4-.3,3.6-1.4,2.4-.5,2.6,1.9,3.4v2.3c.1,0,1,3,1,3l2.6,3.4-2.3,2.1-2.8.8-.7,1.5-1.8,1.5-.3,4.5-1,2.7-3.7,2.3.2,2.6-1.1,3.2.4,1.2,2.5.9v3.4c0,0-1.3,1.5-1.3,1.5h-3.2Z"/>
  <path id="path-geo-id-11" class="st1" d="M0,0"/>
  <path id="path-geo-id-34" class="st1" d="M707.4,196.4l.2.4.9,2.7,6.2,3.1,4.4.5-.3,3.2.6,1.3,1.8-1.7,1.5-5.4,2.3-2.7,1-1.9,1.9-7-.5-4.1-.2-6.3-.9-2-3.9-.2-.3-1.6.4-1.7,2.2-2.1.5-3.7v-2.1c-.1,0-6.5-2-6.5-2l-6.3-2.2-1.7,2-.2,2-1.4,3.1-1.3,1.2,1.6,2-1.3,2.2.5,3.9,1.9.2.7,2.3,5,2.9-.3,1.8-3.1,3.7-.5,1.4-3.7,3-1.4,3.7Z"/>
  <path id="path-geo-id-24" class="st1" d="M650.5,205.8l1.6,9.9,3.4-3.7,1.5-2.4,1.9.3,1.4-3.2,4,.6,1.4-.2.3-2.2,2.2-.3,1.1-1.7,2.6,1.3,2.1.4,2.3,2.3.9,1.8h2.3c0-.1,1.9,1.1,1.9,1.1l-.7,1.7,1.2,1.1h1.8c0-.1,1.7,1.2,1.7,1.2l2,.6.9-1.4,2.3,1.6-1.5,2.3.2,1.3-.9,2-1.5,3.3,1.4,2.1,2.5-2.2,1.1,1.8,2.1,1.3h3.9s2,1.6,2,1.6l2.3-.9-1.3-1.3-.6-3.2-2-1.5-2-4.8.8-4.1-.8-5,.3-1.7,1.4-.9,2.8-3.2-.9-1.5,1.7-.8-.3,3.1-1.9,2.1-.6,3.6,1.5.7.9,5.6-1.5-.2-.3,1.6,3.9,1.7-2.4.7.8,1.6-1.1,1.1,1.7,2,6.9,1.3-1.7,1.1,2.6,1.9-1,1.5,3.6-.2.2-.6,5.5-1.9.4-1.5.6-7.2-9.5,1.9-5.7-20.4-.8-3.2-17.3,3.7-22.4,4.3-13.6,2.5Z"/>
  <path id="path-geo-id-23" class="st1" d="M759.4,115.2l.4-.3.7-5.7,1.6-2.3-.5-1.7,2-1.3-1.4-2,.8-2h1.6c0,0,2.1-1.1,2.1-1.1l1.8.2,1.4-2.7h1.5s.1-2.8.1-2.8l.9-.6,2.4.4.6-3-.2-2.5.8-2.6-1.1-1.7,2-1.3,1.6,2.1,2.4.4-.2-2.4,2.2-1.4v2.7c.1,0,2.9-.7,2.9-.7l.4-1.2-2.3-1.9,2.4-.6,1.2,2.1,1.9-4,3.8-1.4-.3-1.8h2s.9-1.6.9-1.6l1.6-.2,1.8-3.9-4.4-5.7h-1.9s-.5,1.4-.5,1.4l-2.4-2.2v-2.3s-1.5-1.3-1.5-1.3l.3-2.2-2.4.3-2.9-.5-1.2-5-6.4-20.6-2.8-1.7-4.2-1.7h-1.4c0,.1-.3,1.7-.3,1.7l-2.5.7-3.6,3.1-2-.6-.8-3.1h-2.6c0-.1-5.8,16.7-5.8,16.7l.7,5.4-1.5,2.1-.4,2.9.9.7-.4,2.6,1.4,1.1-.2,1.5-1.3,1.9-.2,1.8-1.8,2.5-.4,2.4-1,2.1-2.9,2.7,3.9,11.9,7.4,24.2,2.6,1.4.4,2.1,2,.8Z"/>
  <path id="path-geo-id-15" class="st1" d="M243.7,477.1l1.5,2.3,1.7,5-.6,4.4.7,1.6,4.1,2.1,1-.9,1.8-3.2,3.8-2.5h1.8c0,.1,4-1.7,4-1.7l2.7-2.5.2-.9-3.1-2.1-.5-1.9h-1.6s.1-1.9.1-1.9l-2.2-2.5-4.2-2.3-2.7-.5-4.5-2.8-1.2,1.4,1.3,4.3-1.9,2.4-2,1.3-.3,1ZM232.2,454.4l1.4,2.1,2.8.6.4,3.3,1.2.6,5.9-1.5,1.1-1.3-.5-1.4-1.8-.5-2.4-2.1-1.5-.2-2.8.9-1.4-2.2-1.5-.2-1,2.1ZM225.6,454.7l1.7,3.3,2.4-.7.4-1-1.4-1.6-1.9-.5-1.3.5ZM203.9,441.5l2.4,3.9.5,1.4h4.1c0,0,1.6.9,1.6.9l2.6-.8-2-2.7-1.3-.4-1.4-3.7-1.6-1-2.1,2.2h-2.8ZM177,432.4l.5,1,2.7,1.6,2.9.7,2.1-1.7.7-3.5-.8-1.2-4.3-.4-2.7,1.5-1.1,2.1Z"/>
  <path id="path-geo-id-10" class="st1" d="M703.8,195.4l.8,3.2,5.7,20.4,9.5-1.9-1.8-6-1.7-.3-2.1-1.6-1.9-2.4-.6-2.5-1.1-2.2-2.9-2.7-.8-2.2,1.3-4,.6-.5h-2.9c0,0-2,2.7-2,2.7Z"/>
  <path id="path-geo-id-44" class="st1" d="M752.2,152l5-2.3.4-2.1-.8-3.6,2.3-1.6-1.8-.9-1.3-1.9-.6-2.4-5.7,1.7,1.9,6.6,1,4.5-.4,2Z"/>
  <path id="path-geo-id-21" class="st1" d="M513.4,276.3l.4,1.8-1,3.4.7.9-.9,2-2.3-.7-.5,2.3,4.6-.4,16.3-1.1-.6-3.5,3.4.6,23.2-2.5,7.7-.3,5.3-.4,4.4-.7,10-.6,13-1.4.2-.4,2-1.5,1.6-.3,3.3-1.9,1.5-2.5,2.8-1.1v-1.7c0,0,1.9-1.9,1.9-1.9l-.2-1.2,3.1-2.5,2.1-1.1,5-6-1.4.2-3.5-2-4.2-4.7-1.1-2.5-1.5-1.1.6-2.5-.7-3-2.3-2.3-1.9-.5-1.1-3-2,.9-1.4,2.1-2.2.9-1.2-1-2.4-.6-2,1.7-1.6-.4-1.5-1.7h-3.2c0,.1-2.2-.3-2.2-.3l-1.8-3.7-3.2-1.3-1.8.5-2-1.1-.9.9-1,1.1,1,1.2-.3,3.8-1.5.5-2,1.8-2.6-.5-1.9.5.7,3.1-1,2-1.7,1-.3,2-1.9.9-1.5,2.4v3s-1.5.7-1.5.7h-2.3c0,0-1.5-.8-1.5-.8l-.5-1.9-3.2,2.6v2.5s-.9,1.1-.9,1.1l-2.4-.7-.8-1.4-3.6,2.2-1.1,2.2-4.1-2.6-1.8.8-1.5-1.1-.8,1.6-2.5.5-1,1.4-1.8.3-1.7,2.8,1.5,3.6-3,.6-2.8,1.5-.4,2,1.6,2.4-1.3,1.8-6.2-2.6-1.7.4-2.1,3.5.8,1Z"/>
  <path id="path-geo-id-39" class="st1" d="M568.4,179.2l3.2,26.7,2.5,23.2.9-.9,2,1.1,1.8-.5,3.2,1.3,1.8,3.7,2.2.4h3.2c0-.1,1.5,1.6,1.5,1.6l1.6.4,2-1.7,2.4.6,1.2,1,2.2-.9,1.4-2.1,2-.9,1.1,3,1.9.5,2.3,2.3,1,.2,2.9-1.3v-2.6c.1,0,1.6-.5,1.6-.5l-1-3.8,2-4.8,3.1,1.4.8-.8-.2-4.1.9-2,2.9-3.1,1.8,1,1.7-1.1,2.4-3.6,1.9-1.6-.2-2.6,1.1-4.5v-3.6c0,0,.9-3.4.9-3.4l-.5-3.2-1.3-1.6,1.9-1.6-4.2-25.6-10.2,5.9-3.8,4.5-1.8,1.7h-3.9s-3.2,2.1-3.2,2.1l-3.1,1.5-3.3-1.1h-1.6c0,.1-1.7,1.3-1.7,1.3l-.7-2-1.6-1.2-5.8-1.9-19.1,3.1Z"/>
  <path id="path-geo-id-55" class="st1" d="M461.6,90.8l-1-.8-1.6,2-1.1-.3.4,11.4-.9,1.2-4.6,2.4-.9,2.5-1.1.9v2.7c-.1,0,1.4.1,1.4.1l1.8,2.4-1.4,3,.3,3.5-.6.6.7,2.7-.7,3.6,4.1,3.3,2.4.3,1.9,2.2,2.3.6,1.8,1.2.8,2.5,4.2,3.2,2,.4,2.9,4.2-.2,3.1.8,2.2.4,2.9,2.1,1.7-1.6,2.5.7,4.2,1.5,3.3,1.4.9,3.3.7,1.2,2.5,26.2-1.4,13.9-1.1-.4-2.7.6-2.9-1.4-1.7-.6-3.8-1-3.4,1.2-6.2,1-2.5-.8-3.7.9-4.4,1.6-1.6-.6-2.7.5-3.7,1.8-5.5,1.4-1.8.8-3.8,1-.6v-2.3s-2.7,1.1-2.7,1.1l-2.1,5.7-2.4,1.1-1.8,4-2.1,2.2-1.4-.3.4-3.1,1.8-3.5v-1.1s2.6-.7,2.6-.7l.3-2.3-2.1-1.4.9-3.2-3.2-.2.8-2,.3-2.7-1.7-2.8-2.9-.3-.2-2.5-2.1-.7h-2.3c0,0-1.3-.8-1.3-.8l-1.4.7-2.3-.4-4.3-2-14-2.9-1.5-3.1-2.8-1.1-2.3-.5-1.5-1.2-2.9,1.7.3-3.3,1.6-2.7-1.6-1.3-3,2.1-3.2,1-5.9,2.6h-3Z"/>
  <path id="path-geo-id-41" class="st1" d="M45.1,47.4l-4.5.7-1.2-1.5-.9,4.5-.9.3-.6,4.1-3.7,10.7-3.2,6-.6,2.6-6.2,15.3-2.2,4.3-3.7,4.8-2.2,4.1-2.6,3.2,1,3.9-.2,1.6-1.4,2.4-.7,3.6v2.7s1.3,2.8,1.3,2.8l11.8,3.5,13.3,3.7,14.1,4.2,14,3.8,4.5,1.1,18,4.6,23.2,5.3,7.7-34.1,2.1-3.7-.3-1.3,1.4-1.2-1.9-1.8-1.8-3.7,4.1-6,1.6-.4,2-2.7.2-1.6,2-1.9,1.5-3.2,4-4.9-1-3.4-2.3-1.4-1-3.6-27.1-6.5-2.1.8-1.7-.6-4.9-.6-.8.8-4-.4-3.7,1-4-.5-1.5-1.3-3.2.6-3.1-.4-5.4-3.1-3.7-.6-4.4,1.2h-2.1c0,.1-5.2-2.8-5.2-2.8l-.9-1.1,1-5.8-.5-2.6-2.2-2.7h-2.3c0,.1-1.7-1.1-1.7-1.1l-1.1-1.9Z"/>
  <path id="path-geo-id-38" class="st1" d="M305.5,43.7l-1.7,21.6-3.2,36.6,15.1,1.2,20.1,1.3,25.9,1.3,14.5.5,14.3.3h10.6c0,.1.1-2.8.1-2.8l-.6-4.7-1.6-2.1-1-4.1.3-4.2-.4-3.4v-5c-.1,0-.5-2.1-.5-2.1v-3.8c0,0-2-5-2-5l-.7-3.4-.9-1.8v-4.6c0,0,.2-6.7.2-6.7l-1.1-5-12.5-.2-15-.4-22.4-1-13.9-.8-23.5-1.8Z"/>
  <path id="path-geo-id-05" class="st1" d="M505.5,295.9l-10,.7,1.2-2.4,3.3-3.9-1.6-3.7-19.2,1-26.4,1-22.9.5,3.2,21.4-.3,34,1.6,1.7,3.6-.9,1.9.7.2,10.3,29.3-.7,17-.7,1.1-2.8v-1.5s-2.7-6.5-2.7-6.5v-1.9c0,0,2.2,0,2.2,0l.4-2.4-.7-3.8,3.1-1.2-1-1.5,3-4-.3-1.2,2.2-.6.9-2.9-.7-1.5,1.8-1.2.6-3.1,2.5-1.6-1-1.7,1.5-.7.5-1.8,1.7-.5-1.6-2.4,1.2-2.4-.9-1.1,3.2-3.6-.8-2.3,2.1-.6.6-2.6,1.6-.8-1.3-1.4Z"/>
  <path id="path-geo-id-18" class="st1" d="M529.7,182.9l4,45.6-.4,2.6-1.1,1.7,1.4,1.4v1.4c0,0,1.6,3.8,1.6,3.8l-.3,2-1.2,2-2.8,6.2-1.6.2.8,2.1-1.6,2.8.5,4.5,1.8-.3,1-1.4,2.5-.5.8-1.6,1.5,1.1,1.8-.8,4.1,2.6,1.1-2.2,3.6-2.2.8,1.4,2.4.7.9-1.1v-2.5s3.2-2.6,3.2-2.6l.5,1.9,1.5.8h2.3c0,0,1.4-.6,1.4-.6v-3s1.5-2.4,1.5-2.4l1.9-.9.3-2,1.7-1,1-2-.7-3.1,1.9-.5,2.6.5,2-1.8,1.5-.5.3-3.8-1-1.2,1-1.1-2.5-23.2-3.2-26.7v-1.2c-.1,0-14.1,1.6-14.1,1.6l-14.7,1.5-3.7,2.5-3.8.8-2.4-1.3Z"/>
  <path id="path-geo-id-27" class="st1" d="M392.9,47.9l1.1,5-.3,6.7v4.6c0,0,1,1.8,1,1.8l.7,3.4,2.1,5v3.8c0,0,.3,2.1.3,2.1v5c.1,0,.6,3.4.6,3.4l-.3,4.2,1,4.1,1.6,2.1.6,4.7v2.9c-.1,0-.4,2.1-.4,2.1l-1,1.5-2.8,2.7,2.4,3.8,2.6,1,.5,1.1-.2,34.7h13.1s21.5-.3,21.5-.3l16.5-.5,21.9-.9-.8-2.2.2-3.1-2.9-4.2-2-.4-4.2-3.2-.8-2.5-1.8-1.2-2.3-.6-1.9-2.2-2.4-.3-4.1-3.3.7-3.6-.7-2.7.6-.6-.3-3.5,1.4-3-1.8-2.4h-1.5c0-.1.1-2.9.1-2.9l1.1-.9.9-2.5,4.6-2.4.9-1.2-.4-11.4,1.1.3,1.6-2,1,.8-1.1-1.5,5.6-4.6,5.2-5.4,1.5-2.3,3.3-3.3,4.1-3,7.2-2.9,2.3-1.3,2.2-2.2-1.6-.4-2.1.8-1.8-1.7-1.4-.4-3.2.6-4.9.2-1.8-2.7-2.5,1.4-2.1,2-2.3.8-3.7-1.1v-1.6c-.1,0-2.1,0-2.1,0l-1.9-1v-1.1s-2.1-.7-2.1-.7l-1.6.5.2,1.9-1.1.5-2-4.3-1.9.3-1-1.9-3.4-1.5h-4.7c0,0-1.5,1.7-1.5,1.7l-4.2.7-.7-2.1-5.2-.4-.3-.9-4.2-.3-1.4-1.2v-1.9c.1,0-1.8-7.8-1.8-7.8l-1.7-1.4-2.5-.2v7.3c0,0-13.5,0-13.5,0h-13.1Z"/>
  <path id="path-geo-id-09" class="st1" d="M726.2,143.9l2.5,14.4,1.3,1.3-2.9,2.9,1.5,1.9,2.8-2.1,2.8-2.7h1.1s2.6-3.1,2.6-3.1l5.2-.8,2.1-.8,5.3-2.7,1.7-.2.4-2-1-4.5-1.9-6.6v-.3c0,0-17.5,4.1-17.5,4.1l-6,1.3Z"/>
  <path id="DC_MAP" class="st1" d="M734.3,229.1l9.8-14.9,20.1,13.4,4.9,3.4-16.2,25-.7-4.7-1.1-3.6.5-4-2.3-4-1.3.5-3-3.2-1-2-4.5-.5-1.9-1.1-3.4-3.9v-.2Z"/>
  <line class="st1" x1="688.5" y1="213" x2="744.2" y2="214.2"/>
  <g class="st2">
    <text class="st3" transform="translate(746.6 234.9)"><tspan x="0" y="0">DC</tspan></text>
    <text class="st0" transform="translate(746.6 234.9)"><tspan x="0" y="0">DC</tspan></text>
  </g>
  <line class="st1" x1="689.3" y1="216.8" x2="753" y2="256"/>
</svg>