<?xml version="1.0" encoding="UTF-8"?>
<svg id="Layer_1" xmlns="http://www.w3.org/2000/svg" version="1.1" viewBox="0 0 800 500">
  <!-- Generator: Adobe Illustrator 29.0.0, SVG Export Plug-In . SVG Version: 2.1.0 Build 186)  -->
  <defs>
    <style>
      .st0, .st1 {
        fill: #5b62bc;
      }

      .st0, .st1, .st2, .st3 {
        font-family: CNNSans-Bold, 'CNN Sans';
        font-size: 12px;
        font-weight: 700;
      }

      .st0, .st2 {
        isolation: isolate;
      }

      .st4 {
        fill: none;
        stroke: #56d3ff;
        stroke-width: .2px;
      }

      .st4, .st2, .st3 {
        stroke-miterlimit: 10;
      }

      .st2, .st3 {
        stroke: #fff;
        stroke-width: 2px;
      }

      .st5 {
        display: none;
      }
    </style>
  </defs>
  <g id="sombras">
    <text class="st2" transform="translate(643.5 429.1)"><tspan x="0" y="0">FL</tspan></text>
    <text class="st2" transform="translate(605.7 360.1)"><tspan x="0" y="0">GA</tspan></text>
    <text class="st2" transform="translate(143.4 132)"><tspan x="0" y="0">ID</tspan></text>
    <text class="st2" transform="translate(500.6 220.3)"><tspan x="0" y="0">IL</tspan></text>
    <text class="st2" transform="translate(546.8 222.5)"><tspan x="0" y="0">IN</tspan></text>
    <text class="st2" transform="translate(438.5 187.5)"><tspan x="0" y="0">IA</tspan></text>
    <text class="st2" transform="translate(365.1 256.1)"><tspan x="0" y="0">KS</tspan></text>
    <text class="st2" transform="translate(572.7 261.8)"><tspan x="0" y="0">KY</tspan></text>
    <text class="st2" transform="translate(456 382.9)"><tspan x="0" y="0">LA</tspan></text>
    <text class="st2" transform="translate(758.1 72.3)"><tspan x="0" y="0">ME</tspan></text>
    <text class="st2" transform="translate(557.9 161.2)"><tspan x="0" y="0">MI</tspan></text>
    <text class="st2" transform="translate(418 100.5)"><tspan x="0" y="0">MN</tspan></text>
    <text class="st2" transform="translate(501.5 364.8)"><tspan x="0" y="0">MS</tspan></text>
    <text class="st2" transform="translate(450.7 260.5)"><tspan x="0" y="0">MO</tspan></text>
    <text class="st2" transform="translate(220.1 79.4)"><tspan x="0" y="0">MT</tspan></text>
    <text class="st2" transform="translate(346 197.3)"><tspan x="0" y="0">NE</tspan></text>
    <text class="st2" transform="translate(96.7 203.8)"><tspan x="0" y="0">NV</tspan></text>
    <text class="st2" transform="translate(240.4 325.7)"><tspan x="0" y="0">NM</tspan></text>
    <text class="st2" transform="translate(694.9 135.8)"><tspan x="0" y="0">NY</tspan></text>
    <text class="st2" transform="translate(672.8 290.9)"><tspan x="0" y="0">NC</tspan></text>
    <text class="st2" transform="translate(341.1 81.9)"><tspan x="0" y="0">ND</tspan></text>
    <text class="st2" transform="translate(591.2 210.6)"><tspan x="0" y="0">OH</tspan></text>
    <text class="st2" transform="translate(384.5 315.3)"><tspan x="0" y="0">OK</tspan></text>
    <text class="st2" transform="translate(63.3 109.6)"><tspan x="0" y="0">OR</tspan></text>
    <text class="st2" transform="translate(662.6 185.6)"><tspan x="0" y="0">PA</tspan></text>
    <text class="st2" transform="translate(642.5 327.9)"><tspan x="0" y="0">SC</tspan></text>
    <text class="st2" transform="translate(342.3 139.7)"><tspan x="0" y="0">SD</tspan></text>
    <text class="st2" transform="translate(550.1 301.1)"><tspan x="0" y="0">TN</tspan></text>
    <text class="st2" transform="translate(357.6 397.3)"><tspan x="0" y="0">TX</tspan></text>
    <text class="st2" transform="translate(170.8 225.5)"><tspan x="0" y="0">UT</tspan></text>
    <text class="st2" transform="translate(658.7 252)"><tspan x="0" y="0">VA</tspan></text>
    <text class="st2" transform="translate(85.6 43.7)"><tspan x="0" y="0">WA</tspan></text>
    <text class="st2" transform="translate(625.2 235.3)"><tspan x="0" y="0">WV</tspan></text>
    <text class="st2" transform="translate(483.9 130.8)"><tspan x="0" y="0">WI</tspan></text>
    <text class="st2" transform="translate(237.1 159.5)"><tspan x="0" y="0">WY</tspan></text>
    <text class="st2" transform="translate(41.4 247.9)"><tspan x="0" y="0">CA</tspan></text>
    <text class="st2" transform="translate(549.3 360)"><tspan x="0" y="0">AL</tspan></text>
    <text class="st2" transform="translate(258.1 239.8)"><tspan x="0" y="0">CO</tspan></text>
    <text class="st2" transform="translate(77.9 426.5)"><tspan x="0" y="0">AK</tspan></text>
    <text class="st2" transform="translate(155.2 317.4)"><tspan x="0" y="0">AZ</tspan></text>
    <text class="st3" transform="translate(455.5 323.8)"><tspan x="0" y="0">AR</tspan></text>
    <text class="st2" transform="translate(726.6 385.1)"><tspan x="0" y="0">DC</tspan></text>
  </g>
  <g id="siglas" class="st5">
    <text class="st0" transform="translate(643.5 429.1)"><tspan x="0" y="0">FL</tspan></text>
    <text class="st0" transform="translate(605.7 360.1)"><tspan x="0" y="0">GA</tspan></text>
    <text class="st0" transform="translate(143.4 132)"><tspan x="0" y="0">ID</tspan></text>
    <text class="st0" transform="translate(500.6 220.3)"><tspan x="0" y="0">IL</tspan></text>
    <text class="st0" transform="translate(546.8 222.5)"><tspan x="0" y="0">IN</tspan></text>
    <text class="st0" transform="translate(438.5 187.5)"><tspan x="0" y="0">IA</tspan></text>
    <text class="st0" transform="translate(365.1 256.1)"><tspan x="0" y="0">KS</tspan></text>
    <text class="st0" transform="translate(572.7 261.8)"><tspan x="0" y="0">KY</tspan></text>
    <text class="st0" transform="translate(456 382.9)"><tspan x="0" y="0">LA</tspan></text>
    <text class="st0" transform="translate(758.1 72.3)"><tspan x="0" y="0">ME</tspan></text>
    <text class="st0" transform="translate(557.9 161.2)"><tspan x="0" y="0">MI</tspan></text>
    <text class="st0" transform="translate(418 100.5)"><tspan x="0" y="0">MN</tspan></text>
    <text class="st0" transform="translate(501.5 364.8)"><tspan x="0" y="0">MS</tspan></text>
    <text class="st0" transform="translate(450.7 260.5)"><tspan x="0" y="0">MO</tspan></text>
    <text class="st0" transform="translate(220.1 79.4)"><tspan x="0" y="0">MT</tspan></text>
    <text class="st0" transform="translate(346 197.3)"><tspan x="0" y="0">NE</tspan></text>
    <text class="st0" transform="translate(96.7 203.8)"><tspan x="0" y="0">NV</tspan></text>
    <text class="st0" transform="translate(240.4 325.7)"><tspan x="0" y="0">NM</tspan></text>
    <text class="st0" transform="translate(694.9 135.8)"><tspan x="0" y="0">NY</tspan></text>
    <text class="st0" transform="translate(672.8 290.9)"><tspan x="0" y="0">NC</tspan></text>
    <text class="st0" transform="translate(341.1 81.9)"><tspan x="0" y="0">ND</tspan></text>
    <text class="st0" transform="translate(591.2 210.6)"><tspan x="0" y="0">OH</tspan></text>
    <text class="st0" transform="translate(384.5 315.3)"><tspan x="0" y="0">OK</tspan></text>
    <text class="st0" transform="translate(63.3 109.6)"><tspan x="0" y="0">OR</tspan></text>
    <text class="st0" transform="translate(662.6 185.6)"><tspan x="0" y="0">PA</tspan></text>
    <text class="st0" transform="translate(642.5 327.9)"><tspan x="0" y="0">SC</tspan></text>
    <text class="st0" transform="translate(342.3 139.7)"><tspan x="0" y="0">SD</tspan></text>
    <text class="st0" transform="translate(550.1 301.1)"><tspan x="0" y="0">TN</tspan></text>
    <text class="st0" transform="translate(357.6 397.3)"><tspan x="0" y="0">TX</tspan></text>
    <text class="st0" transform="translate(170.8 225.5)"><tspan x="0" y="0">UT</tspan></text>
    <text class="st0" transform="translate(658.7 252)"><tspan x="0" y="0">VA</tspan></text>
    <text class="st0" transform="translate(85.6 43.7)"><tspan x="0" y="0">WA</tspan></text>
    <text class="st0" transform="translate(625.2 235.3)"><tspan x="0" y="0">WV</tspan></text>
    <text class="st0" transform="translate(483.9 130.8)"><tspan x="0" y="0">WI</tspan></text>
    <text class="st0" transform="translate(237.1 159.5)"><tspan x="0" y="0">WY</tspan></text>
    <text class="st0" transform="translate(41.4 247.9)"><tspan x="0" y="0">CA</tspan></text>
    <text class="st0" transform="translate(549.3 360)"><tspan x="0" y="0">AL</tspan></text>
    <text class="st0" transform="translate(258.1 239.8)"><tspan x="0" y="0">CO</tspan></text>
    <text class="st0" transform="translate(77.9 426.5)"><tspan x="0" y="0">AK</tspan></text>
    <text class="st0" transform="translate(155.2 317.4)"><tspan x="0" y="0">AZ</tspan></text>
    <text class="st1" transform="translate(455.5 323.8)"><tspan x="0" y="0">AR</tspan></text>
    <text class="st0" transform="translate(726.6 385.1)"><tspan x="0" y="0">DC</tspan></text>
  </g>
  <path id="DC_MAP" class="st4" d="M709.7,378.4l13-19.8,26.7,17.8,6.5,4.5-21.5,33.1-.9-6.2-1.4-4.8.6-5.3-3-5.3-1.7.6-4-4.3-1.3-2.7-5.9-.7-2.5-1.4-4.5-5.2Z"/>
</svg>